;Layer: Drill PTH
;EasyEDA v6.4.7, 2020-12-07T21:14:05+01:00
;b914d488d3f24411b8e9a5840e5f031f,4d97e48eab474e129cc19cc013e78dee,10
;Gerber Generator version 0.2
M48
METRIC,LZ,000.000
;Holesize 1 = 0.900 METRIC
T01C0.900
;Holesize 2 = 0.901 METRIC
T02C0.901
;Holesize 3 = 1.200 METRIC
T03C1.200
;Holesize 4 = 1.301 METRIC
T04C1.301
%
G05
G90
T01
X+018044Y+043053
X+018044Y+045593
X+018044Y+048133
X+018044Y+050673
X+018044Y+053213
X+018044Y+055753
X+018044Y+058293
X+018044Y+060833
X+018044Y+063373
X+018044Y+065913
X+018044Y+068453
X+018044Y+070993
X+002804Y+070993
X+002804Y+068453
X+002804Y+065913
X+002804Y+063373
X+002804Y+060833
X+002804Y+058293
X+002804Y+055753
X+002804Y+053213
X+002804Y+050673
X+002804Y+048133
X+002804Y+045593
X+002804Y+043053
T02
X+011234Y+035982G85X+012134Y+035982
X+007234Y+035982G85X+008134Y+035982
X+004234Y+035981G85X+005134Y+035981
X+012584Y+031582G85X+013484Y+031582
X+004234Y+029482G85X+005134Y+029482
X+007234Y+029482G85X+008134Y+029482
X+011234Y+029482G85X+012134Y+029482
X+012584Y+033781G85X+013484Y+033781
T03
X+031358Y+014745
X+026113Y+016129
X+021455Y+013354
X+049265Y+017285
X+044020Y+018669
X+039362Y+015894
X+109913Y+027421
X+104912Y+029522
X+099913Y+027421
X+109913Y+044439
X+104912Y+046540
X+099913Y+044439
X+109913Y+061457
X+104912Y+063558
X+099913Y+061457
X+091879Y+038089
X+086878Y+040190
X+081879Y+038089
X+073845Y+043042
X+068844Y+045143
X+063845Y+043042
X+055811Y+037962
X+050810Y+040063
X+045811Y+037962
X+037777Y+035422
X+032776Y+037523
X+027777Y+035422
X+091879Y+055107
X+086878Y+057208
X+081879Y+055107
X+073845Y+060060
X+068844Y+062161
X+063845Y+060060
X+055811Y+054980
X+050810Y+057081
X+045811Y+054980
X+037777Y+052440
X+032776Y+054541
X+027777Y+052440
X+091879Y+072125
X+086878Y+074226
X+081879Y+072125
X+073845Y+077078
X+068844Y+079179
X+063845Y+077078
X+055811Y+071998
X+050810Y+074099
X+045811Y+071998
X+037777Y+069458
X+032776Y+071559
X+027777Y+069458
T04
X+021473Y+070182
X+021473Y+064183
M30
