G04 Layer: TopSilkLayer*
G04 EasyEDA v6.4.7, 2020-12-07T21:14:05+01:00*
G04 b914d488d3f24411b8e9a5840e5f031f,4d97e48eab474e129cc19cc013e78dee,10*
G04 Gerber Generator version 0.2*
G04 Scale: 100 percent, Rotated: No, Reflected: No *
G04 Dimensions in millimeters *
G04 leading zeros omitted , absolute positions ,3 integer and 3 decimal *
%FSLAX33Y33*%
%MOMM*%
G90*
D02*

%ADD10C,0.254000*%
%ADD17C,0.203200*%
%ADD18C,0.203200*%
%ADD19C,0.178003*%
%ADD20C,0.177800*%
%ADD21C,0.152400*%

%LPD*%
G54D10*
G01X16893Y17853D02*
G01X17105Y16344D01*
G01X16893Y17853D02*
G01X18402Y18065D01*
G01X32986Y20112D02*
G01X34485Y20332D01*
G01X34697Y18823D01*
G01X16893Y17853D02*
G01X17105Y16344D01*
G01X16893Y17853D02*
G01X18402Y18065D01*
G01X32991Y20115D02*
G01X34489Y20335D01*
G01X34702Y18826D01*
G01X20735Y1464D02*
G01X19226Y1252D01*
G01X19014Y2761D01*
G01X36621Y5236D02*
G01X36833Y3726D01*
G01X35324Y3514D01*
G01X20735Y1464D02*
G01X19226Y1252D01*
G01X19014Y2761D01*
G01X36621Y5236D02*
G01X36833Y3726D01*
G01X35324Y3514D01*
G01X34800Y20393D02*
G01X35012Y18884D01*
G01X34800Y20393D02*
G01X36309Y20605D01*
G01X50893Y22652D02*
G01X52392Y22872D01*
G01X52604Y21363D01*
G01X34800Y20393D02*
G01X35012Y18884D01*
G01X34800Y20393D02*
G01X36309Y20605D01*
G01X50898Y22655D02*
G01X52396Y22875D01*
G01X52609Y21366D01*
G01X38642Y4004D02*
G01X37133Y3792D01*
G01X36921Y5301D01*
G01X54528Y7776D02*
G01X54740Y6266D01*
G01X53231Y6054D01*
G01X38642Y4004D02*
G01X37133Y3792D01*
G01X36921Y5301D01*
G01X54528Y7776D02*
G01X54740Y6266D01*
G01X53231Y6054D01*
G01X96022Y32512D02*
G01X96022Y30988D01*
G01X96022Y32512D02*
G01X97546Y32512D01*
G01X112273Y32509D02*
G01X113787Y32518D01*
G01X113787Y30994D01*
G01X96022Y32512D02*
G01X96022Y30988D01*
G01X96022Y32512D02*
G01X97546Y32512D01*
G01X112278Y32512D02*
G01X113792Y32521D01*
G01X113792Y30997D01*
G01X97546Y15748D02*
G01X96022Y15748D01*
G01X96022Y17272D01*
G01X113802Y17272D02*
G01X113802Y15748D01*
G01X112278Y15748D01*
G01X97546Y15748D02*
G01X96022Y15748D01*
G01X96022Y17272D01*
G01X113802Y17272D02*
G01X113802Y15748D01*
G01X112278Y15748D01*
G01X96022Y49530D02*
G01X96022Y48006D01*
G01X96022Y49530D02*
G01X97546Y49530D01*
G01X112273Y49527D02*
G01X113787Y49536D01*
G01X113787Y48012D01*
G01X96022Y49530D02*
G01X96022Y48006D01*
G01X96022Y49530D02*
G01X97546Y49530D01*
G01X112278Y49530D02*
G01X113792Y49539D01*
G01X113792Y48015D01*
G01X97546Y32766D02*
G01X96022Y32766D01*
G01X96022Y34290D01*
G01X113802Y34290D02*
G01X113802Y32766D01*
G01X112278Y32766D01*
G01X97546Y32766D02*
G01X96022Y32766D01*
G01X96022Y34290D01*
G01X113802Y34290D02*
G01X113802Y32766D01*
G01X112278Y32766D01*
G01X96022Y66548D02*
G01X96022Y65024D01*
G01X96022Y66548D02*
G01X97546Y66548D01*
G01X112273Y66545D02*
G01X113787Y66554D01*
G01X113787Y65030D01*
G01X96022Y66548D02*
G01X96022Y65024D01*
G01X96022Y66548D02*
G01X97546Y66548D01*
G01X112278Y66548D02*
G01X113792Y66557D01*
G01X113792Y65033D01*
G01X97546Y49784D02*
G01X96022Y49784D01*
G01X96022Y51308D01*
G01X113802Y51308D02*
G01X113802Y49784D01*
G01X112278Y49784D01*
G01X97546Y49784D02*
G01X96022Y49784D01*
G01X96022Y51308D01*
G01X113802Y51308D02*
G01X113802Y49784D01*
G01X112278Y49784D01*
G01X77988Y43180D02*
G01X77988Y41656D01*
G01X77988Y43180D02*
G01X79512Y43180D01*
G01X94239Y43177D02*
G01X95753Y43186D01*
G01X95753Y41662D01*
G01X77988Y43180D02*
G01X77988Y41656D01*
G01X77988Y43180D02*
G01X79512Y43180D01*
G01X94244Y43180D02*
G01X95758Y43189D01*
G01X95758Y41665D01*
G01X79512Y26416D02*
G01X77988Y26416D01*
G01X77988Y27940D01*
G01X95768Y27940D02*
G01X95768Y26416D01*
G01X94244Y26416D01*
G01X79512Y26416D02*
G01X77988Y26416D01*
G01X77988Y27940D01*
G01X95768Y27940D02*
G01X95768Y26416D01*
G01X94244Y26416D01*
G01X59954Y48133D02*
G01X59954Y46609D01*
G01X59954Y48133D02*
G01X61478Y48133D01*
G01X76205Y48130D02*
G01X77719Y48139D01*
G01X77719Y46615D01*
G01X59954Y48133D02*
G01X59954Y46609D01*
G01X59954Y48133D02*
G01X61478Y48133D01*
G01X76210Y48133D02*
G01X77724Y48142D01*
G01X77724Y46618D01*
G01X61478Y31369D02*
G01X59954Y31369D01*
G01X59954Y32893D01*
G01X77734Y32893D02*
G01X77734Y31369D01*
G01X76210Y31369D01*
G01X61478Y31369D02*
G01X59954Y31369D01*
G01X59954Y32893D01*
G01X77734Y32893D02*
G01X77734Y31369D01*
G01X76210Y31369D01*
G01X41920Y43053D02*
G01X41920Y41529D01*
G01X41920Y43053D02*
G01X43444Y43053D01*
G01X58171Y43050D02*
G01X59685Y43059D01*
G01X59685Y41535D01*
G01X41920Y43053D02*
G01X41920Y41529D01*
G01X41920Y43053D02*
G01X43444Y43053D01*
G01X58176Y43053D02*
G01X59690Y43062D01*
G01X59690Y41538D01*
G01X43444Y26289D02*
G01X41920Y26289D01*
G01X41920Y27813D01*
G01X59700Y27813D02*
G01X59700Y26289D01*
G01X58176Y26289D01*
G01X43444Y26289D02*
G01X41920Y26289D01*
G01X41920Y27813D01*
G01X59700Y27813D02*
G01X59700Y26289D01*
G01X58176Y26289D01*
G01X23886Y40513D02*
G01X23886Y38989D01*
G01X23886Y40513D02*
G01X25410Y40513D01*
G01X40137Y40510D02*
G01X41651Y40519D01*
G01X41651Y38995D01*
G01X23886Y40513D02*
G01X23886Y38989D01*
G01X23886Y40513D02*
G01X25410Y40513D01*
G01X40142Y40513D02*
G01X41656Y40522D01*
G01X41656Y38998D01*
G01X25410Y23749D02*
G01X23886Y23749D01*
G01X23886Y25273D01*
G01X41666Y25273D02*
G01X41666Y23749D01*
G01X40142Y23749D01*
G01X25410Y23749D02*
G01X23886Y23749D01*
G01X23886Y25273D01*
G01X41666Y25273D02*
G01X41666Y23749D01*
G01X40142Y23749D01*
G01X77988Y60198D02*
G01X77988Y58674D01*
G01X77988Y60198D02*
G01X79512Y60198D01*
G01X94239Y60195D02*
G01X95753Y60204D01*
G01X95753Y58680D01*
G01X77988Y60198D02*
G01X77988Y58674D01*
G01X77988Y60198D02*
G01X79512Y60198D01*
G01X94244Y60198D02*
G01X95758Y60207D01*
G01X95758Y58683D01*
G01X79512Y43434D02*
G01X77988Y43434D01*
G01X77988Y44958D01*
G01X95768Y44958D02*
G01X95768Y43434D01*
G01X94244Y43434D01*
G01X79512Y43434D02*
G01X77988Y43434D01*
G01X77988Y44958D01*
G01X95768Y44958D02*
G01X95768Y43434D01*
G01X94244Y43434D01*
G01X59954Y65151D02*
G01X59954Y63627D01*
G01X59954Y65151D02*
G01X61478Y65151D01*
G01X76205Y65148D02*
G01X77719Y65157D01*
G01X77719Y63633D01*
G01X59954Y65151D02*
G01X59954Y63627D01*
G01X59954Y65151D02*
G01X61478Y65151D01*
G01X76210Y65151D02*
G01X77724Y65160D01*
G01X77724Y63636D01*
G01X61478Y48387D02*
G01X59954Y48387D01*
G01X59954Y49911D01*
G01X77734Y49911D02*
G01X77734Y48387D01*
G01X76210Y48387D01*
G01X61478Y48387D02*
G01X59954Y48387D01*
G01X59954Y49911D01*
G01X77734Y49911D02*
G01X77734Y48387D01*
G01X76210Y48387D01*
G01X41920Y60071D02*
G01X41920Y58547D01*
G01X41920Y60071D02*
G01X43444Y60071D01*
G01X58171Y60068D02*
G01X59685Y60077D01*
G01X59685Y58553D01*
G01X41920Y60071D02*
G01X41920Y58547D01*
G01X41920Y60071D02*
G01X43444Y60071D01*
G01X58176Y60071D02*
G01X59690Y60080D01*
G01X59690Y58556D01*
G01X43444Y43307D02*
G01X41920Y43307D01*
G01X41920Y44831D01*
G01X59700Y44831D02*
G01X59700Y43307D01*
G01X58176Y43307D01*
G01X43444Y43307D02*
G01X41920Y43307D01*
G01X41920Y44831D01*
G01X59700Y44831D02*
G01X59700Y43307D01*
G01X58176Y43307D01*
G01X23886Y57531D02*
G01X23886Y56007D01*
G01X23886Y57531D02*
G01X25410Y57531D01*
G01X40137Y57528D02*
G01X41651Y57537D01*
G01X41651Y56013D01*
G01X23886Y57531D02*
G01X23886Y56007D01*
G01X23886Y57531D02*
G01X25410Y57531D01*
G01X40142Y57531D02*
G01X41656Y57540D01*
G01X41656Y56016D01*
G01X25410Y40767D02*
G01X23886Y40767D01*
G01X23886Y42291D01*
G01X41666Y42291D02*
G01X41666Y40767D01*
G01X40142Y40767D01*
G01X25410Y40767D02*
G01X23886Y40767D01*
G01X23886Y42291D01*
G01X41666Y42291D02*
G01X41666Y40767D01*
G01X40142Y40767D01*
G01X77988Y77216D02*
G01X77988Y75692D01*
G01X77988Y77216D02*
G01X79512Y77216D01*
G01X94239Y77213D02*
G01X95753Y77222D01*
G01X95753Y75698D01*
G01X77988Y77216D02*
G01X77988Y75692D01*
G01X77988Y77216D02*
G01X79512Y77216D01*
G01X94244Y77216D02*
G01X95758Y77225D01*
G01X95758Y75701D01*
G01X79512Y60452D02*
G01X77988Y60452D01*
G01X77988Y61976D01*
G01X95768Y61976D02*
G01X95768Y60452D01*
G01X94244Y60452D01*
G01X79512Y60452D02*
G01X77988Y60452D01*
G01X77988Y61976D01*
G01X95768Y61976D02*
G01X95768Y60452D01*
G01X94244Y60452D01*
G01X59954Y82169D02*
G01X59954Y80645D01*
G01X59954Y82169D02*
G01X61478Y82169D01*
G01X76205Y82166D02*
G01X77719Y82175D01*
G01X77719Y80651D01*
G01X59954Y82169D02*
G01X59954Y80645D01*
G01X59954Y82169D02*
G01X61478Y82169D01*
G01X76210Y82169D02*
G01X77724Y82178D01*
G01X77724Y80654D01*
G01X61478Y65405D02*
G01X59954Y65405D01*
G01X59954Y66929D01*
G01X77734Y66929D02*
G01X77734Y65405D01*
G01X76210Y65405D01*
G01X61478Y65405D02*
G01X59954Y65405D01*
G01X59954Y66929D01*
G01X77734Y66929D02*
G01X77734Y65405D01*
G01X76210Y65405D01*
G01X41920Y77089D02*
G01X41920Y75565D01*
G01X41920Y77089D02*
G01X43444Y77089D01*
G01X58171Y77086D02*
G01X59685Y77095D01*
G01X59685Y75571D01*
G01X41920Y77089D02*
G01X41920Y75565D01*
G01X41920Y77089D02*
G01X43444Y77089D01*
G01X58176Y77089D02*
G01X59690Y77098D01*
G01X59690Y75574D01*
G01X43444Y60325D02*
G01X41920Y60325D01*
G01X41920Y61849D01*
G01X59700Y61849D02*
G01X59700Y60325D01*
G01X58176Y60325D01*
G01X43444Y60325D02*
G01X41920Y60325D01*
G01X41920Y61849D01*
G01X59700Y61849D02*
G01X59700Y60325D01*
G01X58176Y60325D01*
G01X23886Y74549D02*
G01X23886Y73025D01*
G01X23886Y74549D02*
G01X25410Y74549D01*
G01X40137Y74546D02*
G01X41651Y74555D01*
G01X41651Y73031D01*
G01X23886Y74549D02*
G01X23886Y73025D01*
G01X23886Y74549D02*
G01X25410Y74549D01*
G01X40142Y74549D02*
G01X41656Y74558D01*
G01X41656Y73034D01*
G01X25410Y57785D02*
G01X23886Y57785D01*
G01X23886Y59309D01*
G01X41666Y59309D02*
G01X41666Y57785D01*
G01X40142Y57785D01*
G01X25410Y57785D02*
G01X23886Y57785D01*
G01X23886Y59309D01*
G01X41666Y59309D02*
G01X41666Y57785D01*
G01X40142Y57785D01*
G54D17*
G01X6614Y74803D02*
G01X6614Y76327D01*
G01X14234Y76327D02*
G01X14234Y74803D01*
G01X6614Y76454D02*
G01X14234Y76454D01*
G54D18*
G01X1534Y74803D02*
G01X1534Y41783D01*
G01X19314Y41783D01*
G01X19314Y74803D01*
G01X1534Y74803D01*
G54D10*
G01X-465Y36281D02*
G01X-465Y29282D01*
G01X-465Y29282D02*
G01X1534Y29282D01*
G01X-465Y36281D02*
G01X1534Y36281D01*
G01X1534Y36781D02*
G01X13634Y36781D01*
G01X13634Y28782D01*
G01X1534Y28782D01*
G01X1534Y36781D01*
G54D19*
G01X23223Y64183D02*
G01X19723Y64183D01*
G01X23223Y70182D02*
G01X19723Y70182D01*
G01X19720Y70180D02*
G01X19720Y64180D01*
G54D20*
G01X23225Y64185D02*
G01X23225Y70185D01*
G54D21*
G01X27495Y3482D02*
G01X27612Y3393D01*
G01X27775Y3365D01*
G01X27979Y3393D01*
G01X28128Y3466D01*
G01X28216Y3583D01*
G01X28202Y3686D01*
G01X28135Y3782D01*
G01X28077Y3825D01*
G01X27967Y3864D01*
G01X27643Y3923D01*
G01X27533Y3959D01*
G01X27475Y4005D01*
G01X27408Y4101D01*
G01X27386Y4254D01*
G01X27475Y4372D01*
G01X27624Y4444D01*
G01X27827Y4473D01*
G01X27990Y4444D01*
G01X28108Y4356D01*
G01X27177Y3281D02*
G01X26768Y4324D01*
G01X26663Y3209D02*
G01X26768Y4324D01*
G01X26663Y3209D02*
G01X26255Y4252D01*
G01X26148Y3136D02*
G01X26255Y4252D01*
G01X25501Y3045D02*
G01X25648Y3117D01*
G01X25729Y3288D01*
G01X25743Y3551D01*
G01X25722Y3705D01*
G01X25635Y3957D01*
G01X25510Y4096D01*
G01X25350Y4124D01*
G01X25247Y4110D01*
G01X25098Y4038D01*
G01X25016Y3870D01*
G01X25002Y3604D01*
G01X25024Y3450D01*
G01X25110Y3201D01*
G01X25235Y3059D01*
G01X25398Y3031D01*
G01X25501Y3045D01*
G01X45911Y5641D02*
G01X46029Y5552D01*
G01X46189Y5524D01*
G01X46396Y5553D01*
G01X46542Y5624D01*
G01X46631Y5742D01*
G01X46616Y5845D01*
G01X46551Y5941D01*
G01X46491Y5987D01*
G01X46381Y6023D01*
G01X46057Y6082D01*
G01X45949Y6118D01*
G01X45889Y6164D01*
G01X45824Y6260D01*
G01X45803Y6413D01*
G01X45891Y6531D01*
G01X46038Y6603D01*
G01X46244Y6632D01*
G01X46404Y6603D01*
G01X46522Y6514D01*
G01X45593Y5440D02*
G01X45183Y6482D01*
G01X45078Y5367D02*
G01X45183Y6482D01*
G01X45078Y5367D02*
G01X44669Y6410D01*
G01X44564Y5295D02*
G01X44669Y6410D01*
G01X44196Y5454D02*
G01X44100Y5386D01*
G01X43966Y5211D01*
G01X43814Y6290D01*
G01X104185Y14495D02*
G01X104289Y14391D01*
G01X104444Y14340D01*
G01X104653Y14340D01*
G01X104808Y14391D01*
G01X104912Y14495D01*
G01X104912Y14599D01*
G01X104861Y14704D01*
G01X104808Y14757D01*
G01X104704Y14808D01*
G01X104391Y14912D01*
G01X104289Y14963D01*
G01X104236Y15016D01*
G01X104185Y15120D01*
G01X104185Y15275D01*
G01X104289Y15379D01*
G01X104444Y15430D01*
G01X104653Y15430D01*
G01X104808Y15379D01*
G01X104912Y15275D01*
G01X103842Y14340D02*
G01X103581Y15430D01*
G01X103322Y14340D02*
G01X103581Y15430D01*
G01X103322Y14340D02*
G01X103063Y15430D01*
G01X102804Y14340D02*
G01X103063Y15430D01*
G01X102407Y14599D02*
G01X102407Y14549D01*
G01X102357Y14444D01*
G01X102303Y14391D01*
G01X102199Y14340D01*
G01X101991Y14340D01*
G01X101889Y14391D01*
G01X101836Y14444D01*
G01X101785Y14549D01*
G01X101785Y14653D01*
G01X101836Y14757D01*
G01X101940Y14912D01*
G01X102461Y15430D01*
G01X101732Y15430D01*
G01X104185Y31513D02*
G01X104289Y31409D01*
G01X104444Y31358D01*
G01X104653Y31358D01*
G01X104808Y31409D01*
G01X104912Y31513D01*
G01X104912Y31617D01*
G01X104861Y31722D01*
G01X104808Y31775D01*
G01X104704Y31826D01*
G01X104391Y31930D01*
G01X104289Y31981D01*
G01X104236Y32034D01*
G01X104185Y32138D01*
G01X104185Y32293D01*
G01X104289Y32397D01*
G01X104444Y32448D01*
G01X104653Y32448D01*
G01X104808Y32397D01*
G01X104912Y32293D01*
G01X103842Y31358D02*
G01X103581Y32448D01*
G01X103322Y31358D02*
G01X103581Y32448D01*
G01X103322Y31358D02*
G01X103063Y32448D01*
G01X102804Y31358D02*
G01X103063Y32448D01*
G01X102356Y31358D02*
G01X101785Y31358D01*
G01X102095Y31775D01*
G01X101940Y31775D01*
G01X101836Y31826D01*
G01X101785Y31877D01*
G01X101732Y32034D01*
G01X101732Y32138D01*
G01X101785Y32293D01*
G01X101889Y32397D01*
G01X102044Y32448D01*
G01X102199Y32448D01*
G01X102357Y32397D01*
G01X102407Y32346D01*
G01X102461Y32242D01*
G01X104185Y48531D02*
G01X104289Y48427D01*
G01X104444Y48376D01*
G01X104653Y48376D01*
G01X104808Y48427D01*
G01X104912Y48531D01*
G01X104912Y48635D01*
G01X104861Y48740D01*
G01X104808Y48793D01*
G01X104704Y48844D01*
G01X104391Y48948D01*
G01X104289Y48999D01*
G01X104236Y49052D01*
G01X104185Y49156D01*
G01X104185Y49311D01*
G01X104289Y49415D01*
G01X104444Y49466D01*
G01X104653Y49466D01*
G01X104808Y49415D01*
G01X104912Y49311D01*
G01X103842Y48376D02*
G01X103581Y49466D01*
G01X103322Y48376D02*
G01X103581Y49466D01*
G01X103322Y48376D02*
G01X103063Y49466D01*
G01X102804Y48376D02*
G01X103063Y49466D01*
G01X101940Y48376D02*
G01X102461Y49103D01*
G01X101681Y49103D01*
G01X101940Y48376D02*
G01X101940Y49466D01*
G01X86151Y25163D02*
G01X86255Y25059D01*
G01X86410Y25008D01*
G01X86619Y25008D01*
G01X86774Y25059D01*
G01X86878Y25163D01*
G01X86878Y25267D01*
G01X86827Y25372D01*
G01X86774Y25425D01*
G01X86670Y25476D01*
G01X86357Y25580D01*
G01X86255Y25631D01*
G01X86202Y25684D01*
G01X86151Y25788D01*
G01X86151Y25943D01*
G01X86255Y26047D01*
G01X86410Y26098D01*
G01X86619Y26098D01*
G01X86774Y26047D01*
G01X86878Y25943D01*
G01X85808Y25008D02*
G01X85547Y26098D01*
G01X85288Y25008D02*
G01X85547Y26098D01*
G01X85288Y25008D02*
G01X85029Y26098D01*
G01X84770Y25008D02*
G01X85029Y26098D01*
G01X83802Y25008D02*
G01X84323Y25008D01*
G01X84373Y25476D01*
G01X84323Y25425D01*
G01X84165Y25372D01*
G01X84010Y25372D01*
G01X83855Y25425D01*
G01X83751Y25527D01*
G01X83698Y25684D01*
G01X83698Y25788D01*
G01X83751Y25943D01*
G01X83855Y26047D01*
G01X84010Y26098D01*
G01X84165Y26098D01*
G01X84323Y26047D01*
G01X84373Y25996D01*
G01X84427Y25892D01*
G01X68117Y30116D02*
G01X68221Y30012D01*
G01X68376Y29961D01*
G01X68585Y29961D01*
G01X68740Y30012D01*
G01X68844Y30116D01*
G01X68844Y30220D01*
G01X68793Y30325D01*
G01X68740Y30378D01*
G01X68636Y30429D01*
G01X68323Y30533D01*
G01X68221Y30584D01*
G01X68168Y30637D01*
G01X68117Y30741D01*
G01X68117Y30896D01*
G01X68221Y31000D01*
G01X68376Y31051D01*
G01X68585Y31051D01*
G01X68740Y31000D01*
G01X68844Y30896D01*
G01X67774Y29961D02*
G01X67513Y31051D01*
G01X67254Y29961D02*
G01X67513Y31051D01*
G01X67254Y29961D02*
G01X66995Y31051D01*
G01X66736Y29961D02*
G01X66995Y31051D01*
G01X65768Y30116D02*
G01X65821Y30012D01*
G01X65976Y29961D01*
G01X66080Y29961D01*
G01X66235Y30012D01*
G01X66339Y30170D01*
G01X66393Y30429D01*
G01X66393Y30688D01*
G01X66339Y30896D01*
G01X66235Y31000D01*
G01X66080Y31051D01*
G01X66027Y31051D01*
G01X65872Y31000D01*
G01X65768Y30896D01*
G01X65717Y30741D01*
G01X65717Y30688D01*
G01X65768Y30533D01*
G01X65872Y30429D01*
G01X66027Y30378D01*
G01X66080Y30378D01*
G01X66235Y30429D01*
G01X66339Y30533D01*
G01X66393Y30688D01*
G01X50083Y25036D02*
G01X50187Y24932D01*
G01X50342Y24881D01*
G01X50551Y24881D01*
G01X50706Y24932D01*
G01X50810Y25036D01*
G01X50810Y25140D01*
G01X50759Y25245D01*
G01X50706Y25298D01*
G01X50602Y25349D01*
G01X50289Y25453D01*
G01X50187Y25504D01*
G01X50134Y25557D01*
G01X50083Y25661D01*
G01X50083Y25816D01*
G01X50187Y25920D01*
G01X50342Y25971D01*
G01X50551Y25971D01*
G01X50706Y25920D01*
G01X50810Y25816D01*
G01X49740Y24881D02*
G01X49479Y25971D01*
G01X49220Y24881D02*
G01X49479Y25971D01*
G01X49220Y24881D02*
G01X48961Y25971D01*
G01X48702Y24881D02*
G01X48961Y25971D01*
G01X47630Y24881D02*
G01X48150Y25971D01*
G01X48359Y24881D02*
G01X47630Y24881D01*
G01X32049Y22496D02*
G01X32153Y22392D01*
G01X32308Y22341D01*
G01X32517Y22341D01*
G01X32672Y22392D01*
G01X32776Y22496D01*
G01X32776Y22600D01*
G01X32725Y22705D01*
G01X32672Y22758D01*
G01X32568Y22809D01*
G01X32255Y22913D01*
G01X32153Y22964D01*
G01X32100Y23017D01*
G01X32049Y23121D01*
G01X32049Y23276D01*
G01X32153Y23380D01*
G01X32308Y23431D01*
G01X32517Y23431D01*
G01X32672Y23380D01*
G01X32776Y23276D01*
G01X31706Y22341D02*
G01X31445Y23431D01*
G01X31186Y22341D02*
G01X31445Y23431D01*
G01X31186Y22341D02*
G01X30927Y23431D01*
G01X30668Y22341D02*
G01X30927Y23431D01*
G01X30063Y22341D02*
G01X30221Y22392D01*
G01X30271Y22496D01*
G01X30271Y22600D01*
G01X30221Y22705D01*
G01X30116Y22758D01*
G01X29908Y22809D01*
G01X29753Y22860D01*
G01X29649Y22964D01*
G01X29596Y23068D01*
G01X29596Y23225D01*
G01X29649Y23329D01*
G01X29700Y23380D01*
G01X29855Y23431D01*
G01X30063Y23431D01*
G01X30221Y23380D01*
G01X30271Y23329D01*
G01X30325Y23225D01*
G01X30325Y23068D01*
G01X30271Y22964D01*
G01X30167Y22860D01*
G01X30012Y22809D01*
G01X29804Y22758D01*
G01X29700Y22705D01*
G01X29649Y22600D01*
G01X29649Y22496D01*
G01X29700Y22392D01*
G01X29855Y22341D01*
G01X30063Y22341D01*
G01X86151Y42181D02*
G01X86255Y42077D01*
G01X86410Y42026D01*
G01X86619Y42026D01*
G01X86774Y42077D01*
G01X86878Y42181D01*
G01X86878Y42285D01*
G01X86827Y42390D01*
G01X86774Y42443D01*
G01X86670Y42494D01*
G01X86357Y42598D01*
G01X86255Y42649D01*
G01X86202Y42702D01*
G01X86151Y42806D01*
G01X86151Y42961D01*
G01X86255Y43065D01*
G01X86410Y43116D01*
G01X86619Y43116D01*
G01X86774Y43065D01*
G01X86878Y42961D01*
G01X85808Y42026D02*
G01X85547Y43116D01*
G01X85288Y42026D02*
G01X85547Y43116D01*
G01X85288Y42026D02*
G01X85029Y43116D01*
G01X84770Y42026D02*
G01X85029Y43116D01*
G01X83751Y42390D02*
G01X83802Y42545D01*
G01X83906Y42649D01*
G01X84061Y42702D01*
G01X84114Y42702D01*
G01X84269Y42649D01*
G01X84373Y42545D01*
G01X84427Y42390D01*
G01X84427Y42339D01*
G01X84373Y42181D01*
G01X84269Y42077D01*
G01X84114Y42026D01*
G01X84061Y42026D01*
G01X83906Y42077D01*
G01X83802Y42181D01*
G01X83751Y42390D01*
G01X83751Y42649D01*
G01X83802Y42910D01*
G01X83906Y43065D01*
G01X84061Y43116D01*
G01X84165Y43116D01*
G01X84323Y43065D01*
G01X84373Y42961D01*
G01X68117Y47134D02*
G01X68221Y47030D01*
G01X68376Y46979D01*
G01X68585Y46979D01*
G01X68740Y47030D01*
G01X68844Y47134D01*
G01X68844Y47238D01*
G01X68793Y47343D01*
G01X68740Y47396D01*
G01X68636Y47447D01*
G01X68323Y47551D01*
G01X68221Y47602D01*
G01X68168Y47655D01*
G01X68117Y47759D01*
G01X68117Y47914D01*
G01X68221Y48018D01*
G01X68376Y48069D01*
G01X68585Y48069D01*
G01X68740Y48018D01*
G01X68844Y47914D01*
G01X67774Y46979D02*
G01X67513Y48069D01*
G01X67254Y46979D02*
G01X67513Y48069D01*
G01X67254Y46979D02*
G01X66995Y48069D01*
G01X66736Y46979D02*
G01X66995Y48069D01*
G01X66393Y47188D02*
G01X66289Y47134D01*
G01X66131Y46979D01*
G01X66131Y48069D01*
G01X65478Y46979D02*
G01X65633Y47030D01*
G01X65737Y47188D01*
G01X65788Y47447D01*
G01X65788Y47602D01*
G01X65737Y47863D01*
G01X65633Y48018D01*
G01X65478Y48069D01*
G01X65374Y48069D01*
G01X65217Y48018D01*
G01X65113Y47863D01*
G01X65062Y47602D01*
G01X65062Y47447D01*
G01X65113Y47188D01*
G01X65217Y47030D01*
G01X65374Y46979D01*
G01X65478Y46979D01*
G01X50083Y42054D02*
G01X50187Y41950D01*
G01X50342Y41899D01*
G01X50551Y41899D01*
G01X50706Y41950D01*
G01X50810Y42054D01*
G01X50810Y42158D01*
G01X50759Y42263D01*
G01X50706Y42316D01*
G01X50602Y42367D01*
G01X50289Y42471D01*
G01X50187Y42522D01*
G01X50134Y42575D01*
G01X50083Y42679D01*
G01X50083Y42834D01*
G01X50187Y42938D01*
G01X50342Y42989D01*
G01X50551Y42989D01*
G01X50706Y42938D01*
G01X50810Y42834D01*
G01X49740Y41899D02*
G01X49479Y42989D01*
G01X49220Y41899D02*
G01X49479Y42989D01*
G01X49220Y41899D02*
G01X48961Y42989D01*
G01X48702Y41899D02*
G01X48961Y42989D01*
G01X48359Y42108D02*
G01X48255Y42054D01*
G01X48097Y41899D01*
G01X48097Y42989D01*
G01X47754Y42108D02*
G01X47650Y42054D01*
G01X47495Y41899D01*
G01X47495Y42989D01*
G01X32049Y39514D02*
G01X32153Y39410D01*
G01X32308Y39359D01*
G01X32517Y39359D01*
G01X32672Y39410D01*
G01X32776Y39514D01*
G01X32776Y39618D01*
G01X32725Y39723D01*
G01X32672Y39776D01*
G01X32568Y39827D01*
G01X32255Y39931D01*
G01X32153Y39982D01*
G01X32100Y40035D01*
G01X32049Y40139D01*
G01X32049Y40294D01*
G01X32153Y40398D01*
G01X32308Y40449D01*
G01X32517Y40449D01*
G01X32672Y40398D01*
G01X32776Y40294D01*
G01X31706Y39359D02*
G01X31445Y40449D01*
G01X31186Y39359D02*
G01X31445Y40449D01*
G01X31186Y39359D02*
G01X30927Y40449D01*
G01X30668Y39359D02*
G01X30927Y40449D01*
G01X30325Y39568D02*
G01X30221Y39514D01*
G01X30063Y39359D01*
G01X30063Y40449D01*
G01X29669Y39618D02*
G01X29669Y39568D01*
G01X29616Y39463D01*
G01X29565Y39410D01*
G01X29461Y39359D01*
G01X29253Y39359D01*
G01X29149Y39410D01*
G01X29098Y39463D01*
G01X29045Y39568D01*
G01X29045Y39672D01*
G01X29098Y39776D01*
G01X29202Y39931D01*
G01X29720Y40449D01*
G01X28994Y40449D01*
G01X86151Y59199D02*
G01X86255Y59095D01*
G01X86410Y59044D01*
G01X86619Y59044D01*
G01X86774Y59095D01*
G01X86878Y59199D01*
G01X86878Y59303D01*
G01X86827Y59408D01*
G01X86774Y59461D01*
G01X86670Y59512D01*
G01X86357Y59616D01*
G01X86255Y59667D01*
G01X86202Y59720D01*
G01X86151Y59824D01*
G01X86151Y59979D01*
G01X86255Y60083D01*
G01X86410Y60134D01*
G01X86619Y60134D01*
G01X86774Y60083D01*
G01X86878Y59979D01*
G01X85808Y59044D02*
G01X85547Y60134D01*
G01X85288Y59044D02*
G01X85547Y60134D01*
G01X85288Y59044D02*
G01X85029Y60134D01*
G01X84770Y59044D02*
G01X85029Y60134D01*
G01X84427Y59253D02*
G01X84323Y59199D01*
G01X84165Y59044D01*
G01X84165Y60134D01*
G01X83718Y59044D02*
G01X83147Y59044D01*
G01X83459Y59461D01*
G01X83304Y59461D01*
G01X83200Y59512D01*
G01X83147Y59563D01*
G01X83096Y59720D01*
G01X83096Y59824D01*
G01X83147Y59979D01*
G01X83251Y60083D01*
G01X83408Y60134D01*
G01X83563Y60134D01*
G01X83718Y60083D01*
G01X83771Y60032D01*
G01X83822Y59928D01*
G01X68117Y64152D02*
G01X68221Y64048D01*
G01X68376Y63997D01*
G01X68585Y63997D01*
G01X68740Y64048D01*
G01X68844Y64152D01*
G01X68844Y64256D01*
G01X68793Y64361D01*
G01X68740Y64414D01*
G01X68636Y64465D01*
G01X68323Y64569D01*
G01X68221Y64620D01*
G01X68168Y64673D01*
G01X68117Y64777D01*
G01X68117Y64932D01*
G01X68221Y65036D01*
G01X68376Y65087D01*
G01X68585Y65087D01*
G01X68740Y65036D01*
G01X68844Y64932D01*
G01X67774Y63997D02*
G01X67513Y65087D01*
G01X67254Y63997D02*
G01X67513Y65087D01*
G01X67254Y63997D02*
G01X66995Y65087D01*
G01X66736Y63997D02*
G01X66995Y65087D01*
G01X66393Y64206D02*
G01X66289Y64152D01*
G01X66131Y63997D01*
G01X66131Y65087D01*
G01X65270Y63997D02*
G01X65788Y64724D01*
G01X65008Y64724D01*
G01X65270Y63997D02*
G01X65270Y65087D01*
G01X50083Y59072D02*
G01X50187Y58968D01*
G01X50342Y58917D01*
G01X50551Y58917D01*
G01X50706Y58968D01*
G01X50810Y59072D01*
G01X50810Y59176D01*
G01X50759Y59281D01*
G01X50706Y59334D01*
G01X50602Y59385D01*
G01X50289Y59489D01*
G01X50187Y59540D01*
G01X50134Y59593D01*
G01X50083Y59697D01*
G01X50083Y59852D01*
G01X50187Y59956D01*
G01X50342Y60007D01*
G01X50551Y60007D01*
G01X50706Y59956D01*
G01X50810Y59852D01*
G01X49740Y58917D02*
G01X49479Y60007D01*
G01X49220Y58917D02*
G01X49479Y60007D01*
G01X49220Y58917D02*
G01X48961Y60007D01*
G01X48702Y58917D02*
G01X48961Y60007D01*
G01X48359Y59126D02*
G01X48255Y59072D01*
G01X48097Y58917D01*
G01X48097Y60007D01*
G01X47132Y58917D02*
G01X47650Y58917D01*
G01X47703Y59385D01*
G01X47650Y59334D01*
G01X47495Y59281D01*
G01X47340Y59281D01*
G01X47183Y59334D01*
G01X47079Y59436D01*
G01X47028Y59593D01*
G01X47028Y59697D01*
G01X47079Y59852D01*
G01X47183Y59956D01*
G01X47340Y60007D01*
G01X47495Y60007D01*
G01X47650Y59956D01*
G01X47703Y59905D01*
G01X47754Y59801D01*
G01X32049Y56532D02*
G01X32153Y56428D01*
G01X32308Y56377D01*
G01X32517Y56377D01*
G01X32672Y56428D01*
G01X32776Y56532D01*
G01X32776Y56636D01*
G01X32725Y56741D01*
G01X32672Y56794D01*
G01X32568Y56845D01*
G01X32255Y56949D01*
G01X32153Y57000D01*
G01X32100Y57053D01*
G01X32049Y57157D01*
G01X32049Y57312D01*
G01X32153Y57416D01*
G01X32308Y57467D01*
G01X32517Y57467D01*
G01X32672Y57416D01*
G01X32776Y57312D01*
G01X31706Y56377D02*
G01X31445Y57467D01*
G01X31186Y56377D02*
G01X31445Y57467D01*
G01X31186Y56377D02*
G01X30927Y57467D01*
G01X30668Y56377D02*
G01X30927Y57467D01*
G01X30325Y56586D02*
G01X30221Y56532D01*
G01X30063Y56377D01*
G01X30063Y57467D01*
G01X29098Y56532D02*
G01X29149Y56428D01*
G01X29306Y56377D01*
G01X29410Y56377D01*
G01X29565Y56428D01*
G01X29669Y56586D01*
G01X29720Y56845D01*
G01X29720Y57104D01*
G01X29669Y57312D01*
G01X29565Y57416D01*
G01X29410Y57467D01*
G01X29357Y57467D01*
G01X29202Y57416D01*
G01X29098Y57312D01*
G01X29045Y57157D01*
G01X29045Y57104D01*
G01X29098Y56949D01*
G01X29202Y56845D01*
G01X29357Y56794D01*
G01X29410Y56794D01*
G01X29565Y56845D01*
G01X29669Y56949D01*
G01X29720Y57104D01*
G01X9916Y73797D02*
G01X9916Y72707D01*
G01X9916Y73797D02*
G01X10383Y73797D01*
G01X10538Y73746D01*
G01X10591Y73693D01*
G01X10642Y73588D01*
G01X10642Y73433D01*
G01X10591Y73329D01*
G01X10538Y73279D01*
G01X10383Y73225D01*
G01X9916Y73225D01*
G01X10985Y73588D02*
G01X11089Y73642D01*
G01X11247Y73797D01*
G01X11247Y72707D01*
G01X15250Y43329D02*
G01X15318Y43365D01*
G01X15423Y43469D01*
G01X15423Y42740D01*
G01X15859Y43469D02*
G01X15755Y43434D01*
G01X15687Y43329D01*
G01X15651Y43157D01*
G01X15651Y43053D01*
G01X15687Y42880D01*
G01X15755Y42776D01*
G01X15859Y42740D01*
G01X15928Y42740D01*
G01X16032Y42776D01*
G01X16101Y42880D01*
G01X16136Y43053D01*
G01X16136Y43157D01*
G01X16101Y43329D01*
G01X16032Y43434D01*
G01X15928Y43469D01*
G01X15859Y43469D01*
G01X15250Y45869D02*
G01X15318Y45905D01*
G01X15423Y46009D01*
G01X15423Y45280D01*
G01X16068Y45905D02*
G01X16032Y45974D01*
G01X15928Y46009D01*
G01X15859Y46009D01*
G01X15755Y45974D01*
G01X15687Y45869D01*
G01X15651Y45697D01*
G01X15651Y45524D01*
G01X15687Y45384D01*
G01X15755Y45316D01*
G01X15859Y45280D01*
G01X15895Y45280D01*
G01X15999Y45316D01*
G01X16068Y45384D01*
G01X16101Y45488D01*
G01X16101Y45524D01*
G01X16068Y45628D01*
G01X15999Y45697D01*
G01X15895Y45732D01*
G01X15859Y45732D01*
G01X15755Y45697D01*
G01X15687Y45628D01*
G01X15651Y45524D01*
G01X15250Y48409D02*
G01X15318Y48445D01*
G01X15423Y48549D01*
G01X15423Y47820D01*
G01X15999Y48549D02*
G01X15651Y48064D01*
G01X16172Y48064D01*
G01X15999Y48549D02*
G01X15999Y47820D01*
G01X15250Y50949D02*
G01X15318Y50985D01*
G01X15423Y51089D01*
G01X15423Y50360D01*
G01X16068Y51089D02*
G01X15720Y51089D01*
G01X15687Y50777D01*
G01X15720Y50812D01*
G01X15824Y50845D01*
G01X15928Y50845D01*
G01X16032Y50812D01*
G01X16101Y50741D01*
G01X16136Y50637D01*
G01X16136Y50568D01*
G01X16101Y50464D01*
G01X16032Y50396D01*
G01X15928Y50360D01*
G01X15824Y50360D01*
G01X15720Y50396D01*
G01X15687Y50431D01*
G01X15651Y50500D01*
G01X15527Y53629D02*
G01X15250Y52900D01*
G01X15527Y53629D02*
G01X15804Y52900D01*
G01X15354Y53144D02*
G01X15699Y53144D01*
G01X16240Y53629D02*
G01X16136Y53594D01*
G01X16068Y53489D01*
G01X16032Y53317D01*
G01X16032Y53213D01*
G01X16068Y53040D01*
G01X16136Y52936D01*
G01X16240Y52900D01*
G01X16309Y52900D01*
G01X16413Y52936D01*
G01X16482Y53040D01*
G01X16517Y53213D01*
G01X16517Y53317D01*
G01X16482Y53489D01*
G01X16413Y53594D01*
G01X16309Y53629D01*
G01X16240Y53629D01*
G01X15527Y56169D02*
G01X15250Y55440D01*
G01X15527Y56169D02*
G01X15804Y55440D01*
G01X15354Y55684D02*
G01X15699Y55684D01*
G01X16032Y56029D02*
G01X16101Y56065D01*
G01X16205Y56169D01*
G01X16205Y55440D01*
G01X15527Y58709D02*
G01X15250Y57980D01*
G01X15527Y58709D02*
G01X15804Y57980D01*
G01X15354Y58224D02*
G01X15699Y58224D01*
G01X16068Y58534D02*
G01X16068Y58569D01*
G01X16101Y58638D01*
G01X16136Y58674D01*
G01X16205Y58709D01*
G01X16345Y58709D01*
G01X16413Y58674D01*
G01X16449Y58638D01*
G01X16482Y58569D01*
G01X16482Y58501D01*
G01X16449Y58432D01*
G01X16380Y58328D01*
G01X16032Y57980D01*
G01X16517Y57980D01*
G01X15527Y61122D02*
G01X15250Y60393D01*
G01X15527Y61122D02*
G01X15804Y60393D01*
G01X15354Y60637D02*
G01X15699Y60637D01*
G01X16101Y61122D02*
G01X16482Y61122D01*
G01X16276Y60845D01*
G01X16380Y60845D01*
G01X16449Y60810D01*
G01X16482Y60774D01*
G01X16517Y60670D01*
G01X16517Y60601D01*
G01X16482Y60497D01*
G01X16413Y60429D01*
G01X16309Y60393D01*
G01X16205Y60393D01*
G01X16101Y60429D01*
G01X16068Y60464D01*
G01X16032Y60533D01*
G01X15123Y66217D02*
G01X15123Y65684D01*
G01X15123Y66217D02*
G01X15351Y66217D01*
G01X15428Y66192D01*
G01X15453Y66167D01*
G01X15478Y66116D01*
G01X15478Y66065D01*
G01X15453Y66014D01*
G01X15428Y65989D01*
G01X15351Y65963D01*
G01X15123Y65963D01*
G01X15301Y65963D02*
G01X15478Y65684D01*
G01X16002Y66141D02*
G01X15951Y66192D01*
G01X15875Y66217D01*
G01X15773Y66217D01*
G01X15697Y66192D01*
G01X15646Y66141D01*
G01X15646Y66090D01*
G01X15671Y66040D01*
G01X15697Y66014D01*
G01X15748Y65989D01*
G01X15900Y65938D01*
G01X15951Y65913D01*
G01X15976Y65887D01*
G01X16002Y65836D01*
G01X16002Y65760D01*
G01X15951Y65709D01*
G01X15875Y65684D01*
G01X15773Y65684D01*
G01X15697Y65709D01*
G01X15646Y65760D01*
G01X16347Y66217D02*
G01X16347Y65684D01*
G01X16169Y66217D02*
G01X16525Y66217D01*
G01X15377Y68630D02*
G01X15351Y68681D01*
G01X15301Y68732D01*
G01X15250Y68757D01*
G01X15148Y68757D01*
G01X15097Y68732D01*
G01X15047Y68681D01*
G01X15021Y68630D01*
G01X14996Y68554D01*
G01X14996Y68427D01*
G01X15021Y68351D01*
G01X15047Y68300D01*
G01X15097Y68249D01*
G01X15148Y68224D01*
G01X15250Y68224D01*
G01X15301Y68249D01*
G01X15351Y68300D01*
G01X15377Y68351D01*
G01X15377Y68427D01*
G01X15250Y68427D02*
G01X15377Y68427D01*
G01X15544Y68757D02*
G01X15544Y68224D01*
G01X15544Y68757D02*
G01X15900Y68224D01*
G01X15900Y68757D02*
G01X15900Y68224D01*
G01X16068Y68757D02*
G01X16068Y68224D01*
G01X16068Y68757D02*
G01X16245Y68757D01*
G01X16322Y68732D01*
G01X16372Y68681D01*
G01X16398Y68630D01*
G01X16423Y68554D01*
G01X16423Y68427D01*
G01X16398Y68351D01*
G01X16372Y68300D01*
G01X16322Y68249D01*
G01X16245Y68224D01*
G01X16068Y68224D01*
G01X14996Y71297D02*
G01X14996Y70764D01*
G01X14996Y71297D02*
G01X15224Y71297D01*
G01X15301Y71272D01*
G01X15326Y71247D01*
G01X15351Y71196D01*
G01X15351Y71145D01*
G01X15326Y71094D01*
G01X15301Y71069D01*
G01X15224Y71043D01*
G01X14996Y71043D01*
G01X15174Y71043D02*
G01X15351Y70764D01*
G01X15722Y71297D02*
G01X15519Y70764D01*
G01X15722Y71297D02*
G01X15925Y70764D01*
G01X15595Y70942D02*
G01X15849Y70942D01*
G01X16093Y71297D02*
G01X16220Y70764D01*
G01X16347Y71297D02*
G01X16220Y70764D01*
G01X16347Y71297D02*
G01X16474Y70764D01*
G01X16601Y71297D02*
G01X16474Y70764D01*
G01X4760Y71170D02*
G01X4760Y70637D01*
G01X4582Y71170D02*
G01X4937Y71170D01*
G01X5105Y71170D02*
G01X5461Y70637D01*
G01X5461Y71170D02*
G01X5105Y70637D01*
G01X5781Y71170D02*
G01X5730Y71145D01*
G01X5679Y71094D01*
G01X5654Y71043D01*
G01X5628Y70967D01*
G01X5628Y70840D01*
G01X5654Y70764D01*
G01X5679Y70713D01*
G01X5730Y70662D01*
G01X5781Y70637D01*
G01X5882Y70637D01*
G01X5933Y70662D01*
G01X5984Y70713D01*
G01X6009Y70764D01*
G01X6035Y70840D01*
G01X6035Y70967D01*
G01X6009Y71043D01*
G01X5984Y71094D01*
G01X5933Y71145D01*
G01X5882Y71170D01*
G01X5781Y71170D01*
G01X4709Y68630D02*
G01X4709Y68097D01*
G01X4709Y68630D02*
G01X4937Y68630D01*
G01X5014Y68605D01*
G01X5039Y68580D01*
G01X5064Y68529D01*
G01X5064Y68478D01*
G01X5039Y68427D01*
G01X5014Y68402D01*
G01X4937Y68376D01*
G01X4709Y68376D01*
G01X4887Y68376D02*
G01X5064Y68097D01*
G01X5232Y68630D02*
G01X5588Y68097D01*
G01X5588Y68630D02*
G01X5232Y68097D01*
G01X5755Y68630D02*
G01X5755Y68097D01*
G01X5090Y66090D02*
G01X5064Y66141D01*
G01X5014Y66192D01*
G01X4963Y66217D01*
G01X4861Y66217D01*
G01X4810Y66192D01*
G01X4760Y66141D01*
G01X4734Y66090D01*
G01X4709Y66014D01*
G01X4709Y65887D01*
G01X4734Y65811D01*
G01X4760Y65760D01*
G01X4810Y65709D01*
G01X4861Y65684D01*
G01X4963Y65684D01*
G01X5014Y65709D01*
G01X5064Y65760D01*
G01X5090Y65811D01*
G01X5090Y65887D01*
G01X4963Y65887D02*
G01X5090Y65887D01*
G01X5257Y66217D02*
G01X5257Y65684D01*
G01X5257Y66217D02*
G01X5613Y65684D01*
G01X5613Y66217D02*
G01X5613Y65684D01*
G01X5781Y66217D02*
G01X5781Y65684D01*
G01X5781Y66217D02*
G01X5958Y66217D01*
G01X6035Y66192D01*
G01X6085Y66141D01*
G01X6111Y66090D01*
G01X6136Y66014D01*
G01X6136Y65887D01*
G01X6111Y65811D01*
G01X6085Y65760D01*
G01X6035Y65709D01*
G01X5958Y65684D01*
G01X5781Y65684D01*
G01X5090Y63550D02*
G01X5064Y63601D01*
G01X5014Y63652D01*
G01X4963Y63677D01*
G01X4861Y63677D01*
G01X4810Y63652D01*
G01X4760Y63601D01*
G01X4734Y63550D01*
G01X4709Y63474D01*
G01X4709Y63347D01*
G01X4734Y63271D01*
G01X4760Y63220D01*
G01X4810Y63169D01*
G01X4861Y63144D01*
G01X4963Y63144D01*
G01X5014Y63169D01*
G01X5064Y63220D01*
G01X5090Y63271D01*
G01X5090Y63347D01*
G01X4963Y63347D02*
G01X5090Y63347D01*
G01X5257Y63677D02*
G01X5257Y63144D01*
G01X5257Y63677D02*
G01X5613Y63144D01*
G01X5613Y63677D02*
G01X5613Y63144D01*
G01X5781Y63677D02*
G01X5781Y63144D01*
G01X5781Y63677D02*
G01X5958Y63677D01*
G01X6035Y63652D01*
G01X6085Y63601D01*
G01X6111Y63550D01*
G01X6136Y63474D01*
G01X6136Y63347D01*
G01X6111Y63271D01*
G01X6085Y63220D01*
G01X6035Y63169D01*
G01X5958Y63144D01*
G01X5781Y63144D01*
G01X5125Y61074D02*
G01X5125Y61109D01*
G01X5158Y61178D01*
G01X5194Y61214D01*
G01X5263Y61249D01*
G01X5402Y61249D01*
G01X5471Y61214D01*
G01X5506Y61178D01*
G01X5539Y61109D01*
G01X5539Y61041D01*
G01X5506Y60972D01*
G01X5435Y60868D01*
G01X5090Y60520D01*
G01X5575Y60520D01*
G01X5158Y58709D02*
G01X5539Y58709D01*
G01X5331Y58432D01*
G01X5435Y58432D01*
G01X5506Y58397D01*
G01X5539Y58361D01*
G01X5575Y58257D01*
G01X5575Y58188D01*
G01X5539Y58084D01*
G01X5471Y58016D01*
G01X5367Y57980D01*
G01X5263Y57980D01*
G01X5158Y58016D01*
G01X5125Y58051D01*
G01X5090Y58120D01*
G01X5435Y56042D02*
G01X5090Y55557D01*
G01X5610Y55557D01*
G01X5435Y56042D02*
G01X5435Y55313D01*
G01X5506Y53502D02*
G01X5158Y53502D01*
G01X5125Y53190D01*
G01X5158Y53225D01*
G01X5263Y53258D01*
G01X5367Y53258D01*
G01X5471Y53225D01*
G01X5539Y53154D01*
G01X5575Y53050D01*
G01X5575Y52981D01*
G01X5539Y52877D01*
G01X5471Y52809D01*
G01X5367Y52773D01*
G01X5263Y52773D01*
G01X5158Y52809D01*
G01X5125Y52844D01*
G01X5090Y52913D01*
G01X5506Y50985D02*
G01X5471Y51054D01*
G01X5367Y51089D01*
G01X5298Y51089D01*
G01X5194Y51054D01*
G01X5125Y50949D01*
G01X5090Y50777D01*
G01X5090Y50604D01*
G01X5125Y50464D01*
G01X5194Y50396D01*
G01X5298Y50360D01*
G01X5331Y50360D01*
G01X5435Y50396D01*
G01X5506Y50464D01*
G01X5539Y50568D01*
G01X5539Y50604D01*
G01X5506Y50708D01*
G01X5435Y50777D01*
G01X5331Y50812D01*
G01X5298Y50812D01*
G01X5194Y50777D01*
G01X5125Y50708D01*
G01X5090Y50604D01*
G01X5575Y48422D02*
G01X5229Y47693D01*
G01X5090Y48422D02*
G01X5575Y48422D01*
G01X5263Y46009D02*
G01X5158Y45974D01*
G01X5125Y45905D01*
G01X5125Y45834D01*
G01X5158Y45765D01*
G01X5229Y45732D01*
G01X5367Y45697D01*
G01X5471Y45661D01*
G01X5539Y45593D01*
G01X5575Y45524D01*
G01X5575Y45420D01*
G01X5539Y45351D01*
G01X5506Y45316D01*
G01X5402Y45280D01*
G01X5263Y45280D01*
G01X5158Y45316D01*
G01X5125Y45351D01*
G01X5090Y45420D01*
G01X5090Y45524D01*
G01X5125Y45593D01*
G01X5194Y45661D01*
G01X5298Y45697D01*
G01X5435Y45732D01*
G01X5506Y45765D01*
G01X5539Y45834D01*
G01X5539Y45905D01*
G01X5506Y45974D01*
G01X5402Y46009D01*
G01X5263Y46009D01*
G01X5539Y43225D02*
G01X5506Y43121D01*
G01X5435Y43053D01*
G01X5331Y43017D01*
G01X5298Y43017D01*
G01X5194Y43053D01*
G01X5125Y43121D01*
G01X5090Y43225D01*
G01X5090Y43261D01*
G01X5125Y43365D01*
G01X5194Y43434D01*
G01X5298Y43469D01*
G01X5331Y43469D01*
G01X5435Y43434D01*
G01X5506Y43365D01*
G01X5539Y43225D01*
G01X5539Y43053D01*
G01X5506Y42880D01*
G01X5435Y42776D01*
G01X5331Y42740D01*
G01X5263Y42740D01*
G01X5158Y42776D01*
G01X5125Y42844D01*
G01X7569Y38247D02*
G01X7516Y38351D01*
G01X7412Y38456D01*
G01X7310Y38506D01*
G01X7102Y38506D01*
G01X6998Y38456D01*
G01X6893Y38351D01*
G01X6840Y38247D01*
G01X6789Y38090D01*
G01X6789Y37831D01*
G01X6840Y37676D01*
G01X6893Y37572D01*
G01X6998Y37468D01*
G01X7102Y37414D01*
G01X7310Y37414D01*
G01X7412Y37468D01*
G01X7516Y37572D01*
G01X7569Y37676D01*
G01X7912Y38506D02*
G01X7912Y37414D01*
G01X7912Y38506D02*
G01X8638Y37414D01*
G01X8638Y38506D02*
G01X8638Y37414D01*
G01X8981Y38298D02*
G01X9085Y38351D01*
G01X9240Y38506D01*
G01X9240Y37414D01*
G01X3185Y41920D02*
G01X3185Y40830D01*
G01X3911Y41920D02*
G01X3911Y40830D01*
G01X3185Y41402D02*
G01X3911Y41402D01*
G01X4307Y41661D02*
G01X4307Y41711D01*
G01X4358Y41816D01*
G01X4412Y41869D01*
G01X4516Y41920D01*
G01X4721Y41920D01*
G01X4826Y41869D01*
G01X4879Y41816D01*
G01X4930Y41711D01*
G01X4930Y41607D01*
G01X4879Y41503D01*
G01X4775Y41348D01*
G01X4254Y40830D01*
G01X4983Y40830D01*
G01X44079Y25918D02*
G01X44079Y24828D01*
G01X44805Y25918D02*
G01X44805Y24828D01*
G01X44079Y25400D02*
G01X44805Y25400D01*
G01X45252Y25918D02*
G01X45824Y25918D01*
G01X45514Y25501D01*
G01X45669Y25501D01*
G01X45773Y25450D01*
G01X45824Y25400D01*
G01X45877Y25242D01*
G01X45877Y25138D01*
G01X45824Y24983D01*
G01X45720Y24879D01*
G01X45565Y24828D01*
G01X45410Y24828D01*
G01X45252Y24879D01*
G01X45201Y24930D01*
G01X45148Y25034D01*
G01X97673Y71638D02*
G01X97673Y70548D01*
G01X98399Y71638D02*
G01X98399Y70548D01*
G01X97673Y71120D02*
G01X98399Y71120D01*
G01X99263Y71638D02*
G01X98742Y70911D01*
G01X99522Y70911D01*
G01X99263Y71638D02*
G01X99263Y70548D01*
G01X90561Y14361D02*
G01X90561Y13271D01*
G01X91287Y14361D02*
G01X91287Y13271D01*
G01X90561Y13843D02*
G01X91287Y13843D01*
G01X92255Y14361D02*
G01X91734Y14361D01*
G01X91683Y13893D01*
G01X91734Y13944D01*
G01X91892Y13997D01*
G01X92047Y13997D01*
G01X92202Y13944D01*
G01X92306Y13843D01*
G01X92359Y13685D01*
G01X92359Y13581D01*
G01X92306Y13426D01*
G01X92202Y13322D01*
G01X92047Y13271D01*
G01X91892Y13271D01*
G01X91734Y13322D01*
G01X91683Y13373D01*
G01X91630Y13477D01*
G01X20584Y73797D02*
G01X20584Y72707D01*
G01X21310Y73797D02*
G01X21310Y72707D01*
G01X20584Y73279D02*
G01X21310Y73279D01*
G01X21653Y73588D02*
G01X21757Y73642D01*
G01X21915Y73797D01*
G01X21915Y72707D01*
G01X24503Y66456D02*
G01X24607Y66560D01*
G01X24658Y66715D01*
G01X24658Y66923D01*
G01X24607Y67078D01*
G01X24503Y67183D01*
G01X24399Y67183D01*
G01X24295Y67132D01*
G01X24241Y67078D01*
G01X24191Y66974D01*
G01X24086Y66662D01*
G01X24036Y66560D01*
G01X23982Y66507D01*
G01X23878Y66456D01*
G01X23723Y66456D01*
G01X23619Y66560D01*
G01X23568Y66715D01*
G01X23568Y66923D01*
G01X23619Y67078D01*
G01X23723Y67183D01*
G01X24658Y66113D02*
G01X23568Y65852D01*
G01X24658Y65592D02*
G01X23568Y65852D01*
G01X24658Y65592D02*
G01X23568Y65333D01*
G01X24658Y65074D02*
G01X23568Y65333D01*
G01X24450Y64731D02*
G01X24503Y64627D01*
G01X24658Y64470D01*
G01X23568Y64470D01*
G01X24658Y63400D02*
G01X23568Y63919D01*
G01X24658Y64127D02*
G01X24658Y63400D01*
G54D19*
G75*
G01X22673Y67183D02*
G03X22673Y67183I-1200J0D01*
G01*
M00*
M02*
