G04 Layer: TopSolderMaskLayer*
G04 EasyEDA v6.4.7, 2020-12-07T21:14:05+01:00*
G04 b914d488d3f24411b8e9a5840e5f031f,4d97e48eab474e129cc19cc013e78dee,10*
G04 Gerber Generator version 0.2*
G04 Scale: 100 percent, Rotated: No, Reflected: No *
G04 Dimensions in millimeters *
G04 leading zeros omitted , absolute positions ,3 integer and 3 decimal *
%FSLAX33Y33*%
%MOMM*%
G90*
D02*

%ADD22C,1.803197*%
%ADD23C,1.854200*%
%ADD26C,2.203196*%

%LPD*%
G54D22*
G01X31357Y14745D03*
G01X26113Y16130D03*
G01X21455Y13354D03*
G01X49264Y17285D03*
G01X44020Y18670D03*
G01X39362Y15894D03*
G01X109913Y27421D03*
G01X104912Y29522D03*
G01X99913Y27421D03*
G01X109913Y44439D03*
G01X104912Y46540D03*
G01X99913Y44439D03*
G01X109913Y61457D03*
G01X104912Y63558D03*
G01X99913Y61457D03*
G01X91879Y38089D03*
G01X86878Y40190D03*
G01X81879Y38089D03*
G01X73845Y43042D03*
G01X68844Y45143D03*
G01X63845Y43042D03*
G01X55811Y37962D03*
G01X50810Y40063D03*
G01X45811Y37962D03*
G01X37777Y35422D03*
G01X32776Y37523D03*
G01X27777Y35422D03*
G01X91879Y55107D03*
G01X86878Y57208D03*
G01X81879Y55107D03*
G01X73845Y60060D03*
G01X68844Y62161D03*
G01X63845Y60060D03*
G01X55811Y54980D03*
G01X50810Y57081D03*
G01X45811Y54980D03*
G01X37777Y52440D03*
G01X32776Y54541D03*
G01X27777Y52440D03*
G01X91879Y72125D03*
G01X86878Y74226D03*
G01X81879Y72125D03*
G01X73845Y77078D03*
G01X68844Y79179D03*
G01X63845Y77078D03*
G01X55811Y71998D03*
G01X50810Y74099D03*
G01X45811Y71998D03*
G01X37777Y69458D03*
G01X32776Y71559D03*
G01X27777Y69458D03*
G54D23*
G01X18044Y43053D03*
G01X18044Y45593D03*
G01X18044Y48133D03*
G01X18044Y50673D03*
G01X18044Y53213D03*
G01X18044Y55753D03*
G01X18044Y58293D03*
G01X18044Y60833D03*
G01X18044Y63373D03*
G01X18044Y65913D03*
G01X18044Y68453D03*
G01X18044Y70993D03*
G36*
G01X1877Y70065D02*
G01X1877Y71920D01*
G01X3731Y71920D01*
G01X3731Y70065D01*
G01X1877Y70065D01*
G37*
G01X2804Y68453D03*
G01X2804Y65913D03*
G01X2804Y63373D03*
G01X2804Y60833D03*
G01X2804Y58293D03*
G01X2804Y55753D03*
G01X2804Y53213D03*
G01X2804Y50673D03*
G01X2804Y48133D03*
G01X2804Y45593D03*
G01X2804Y43053D03*
G36*
G01X10332Y34980D02*
G01X10332Y36982D01*
G01X13035Y36982D01*
G01X13035Y34980D01*
G01X10332Y34980D01*
G37*
G36*
G01X6332Y34980D02*
G01X6332Y36982D01*
G01X9034Y36982D01*
G01X9034Y34980D01*
G01X6332Y34980D01*
G37*
G36*
G01X3332Y34980D02*
G01X3332Y36982D01*
G01X6035Y36982D01*
G01X6035Y34980D01*
G01X3332Y34980D01*
G37*
G36*
G01X11681Y30581D02*
G01X11681Y32583D01*
G01X14386Y32583D01*
G01X14386Y30581D01*
G01X11681Y30581D01*
G37*
G36*
G01X3332Y28481D02*
G01X3332Y30482D01*
G01X6035Y30482D01*
G01X6035Y28481D01*
G01X3332Y28481D01*
G37*
G36*
G01X6332Y28481D02*
G01X6332Y30482D01*
G01X9034Y30482D01*
G01X9034Y28481D01*
G01X6332Y28481D01*
G37*
G36*
G01X10332Y28481D02*
G01X10332Y30482D01*
G01X13035Y30482D01*
G01X13035Y28481D01*
G01X10332Y28481D01*
G37*
G36*
G01X11681Y32781D02*
G01X11681Y34782D01*
G01X14386Y34782D01*
G01X14386Y32781D01*
G01X11681Y32781D01*
G37*
G54D26*
G01X21473Y70182D03*
G01X21473Y64183D03*
M00*
M02*
