;Layer: Drill NPTH
;EasyEDA v6.4.7, 2020-12-07T21:14:05+01:00
;b914d488d3f24411b8e9a5840e5f031f,4d97e48eab474e129cc19cc013e78dee,10
;Gerber Generator version 0.2
M48
METRIC,LZ,000.000
;Holesize 1 = 1.501 METRIC
T01C1.501
;Holesize 2 = 1.800 METRIC
T02C1.800
;Holesize 3 = 2.000 METRIC
T03C2.000
;Holesize 4 = 3.200 METRIC
T04C3.200
%
G05
G90
T01
X+003234Y+033782
X+010234Y+033782
X+003234Y+031681
X+010234Y+031681
T02
X+021488Y+009521
X+032379Y+011052
X+039395Y+012061
X+050286Y+013592
X+099413Y+023622
X+110411Y+023622
X+099413Y+040640
X+110411Y+040640
X+099413Y+057658
X+110411Y+057658
X+081379Y+034290
X+092377Y+034290
X+063345Y+039243
X+074343Y+039243
X+045311Y+034163
X+056309Y+034163
X+027277Y+031623
X+038275Y+031623
X+081379Y+051308
X+092377Y+051308
X+063345Y+056261
X+074343Y+056261
X+045311Y+051181
X+056309Y+051181
X+027277Y+048641
X+038275Y+048641
X+081379Y+068326
X+092377Y+068326
X+063345Y+073279
X+074343Y+073279
X+045311Y+068199
X+056309Y+068199
X+027277Y+065659
X+038275Y+065659
T03
X+003185Y+039243
X+044079Y+023241
X+097673Y+068961
X+094371Y+013843
X+021473Y+075692
T04
X+026934Y+010287
X+044841Y+012827
X+104912Y+023622
X+104912Y+040640
X+104912Y+057658
X+086878Y+034290
X+068844Y+039243
X+050810Y+034163
X+032776Y+031623
X+086878Y+051308
X+068844Y+056261
X+050810Y+051181
X+032776Y+048641
X+086878Y+068326
X+068844Y+073279
X+050810Y+068199
X+032776Y+065659
M30
