G04 Layer: BoardOutline*
G04 EasyEDA v6.4.7, 2020-12-12T13:13:04+01:00*
G04 d11925a588f84334974d7b2f1f55f34c,4d97e48eab474e129cc19cc013e78dee,10*
G04 Gerber Generator version 0.2*
G04 Scale: 100 percent, Rotated: No, Reflected: No *
G04 Dimensions in millimeters *
G04 leading zeros omitted , absolute positions ,3 integer and 3 decimal *
%FSLAX33Y33*%
%MOMM*%
G90*
D02*

%ADD10C,0.254000*%
G54D10*
G01X61943Y16D02*
G01X2044Y16D01*
G01X63899Y85900D02*
G01X63899Y1999D01*
G01X0Y1999D02*
G01X0Y85900D01*
G01X1999Y87900D02*
G01X61899Y87900D01*
G01X48460Y11432D02*
G01X48491Y11747D01*
G01X48491Y11747D02*
G01X48542Y12011D01*
G01X48542Y12011D02*
G01X48593Y12234D01*
G01X48593Y12234D02*
G01X48674Y12407D01*
G01X48674Y12407D02*
G01X48765Y12600D01*
G01X48765Y12600D02*
G01X48857Y12752D01*
G01X48857Y12752D02*
G01X48989Y12935D01*
G01X48989Y12935D02*
G01X48991Y12940D01*
G01X48991Y12940D02*
G01X49395Y12646D01*
G01X49395Y12646D02*
G01X49694Y12973D01*
G01X49694Y12973D02*
G01X49373Y13326D01*
G01X49373Y13326D02*
G01X49552Y13460D01*
G01X49552Y13460D02*
G01X49398Y13345D01*
G01X49398Y13345D02*
G01X49375Y13325D01*
G01X49375Y13325D02*
G01X49366Y13320D01*
G01X49366Y13320D02*
G01X49373Y13330D01*
G01X49373Y13330D02*
G01X49446Y13382D01*
G01X49446Y13382D02*
G01X49449Y13385D01*
G01X49449Y13385D02*
G01X49450Y13386D01*
G01X49450Y13386D02*
G01X49501Y13425D01*
G01X49501Y13425D02*
G01X49512Y13433D01*
G01X49512Y13433D02*
G01X49515Y13436D01*
G01X49515Y13436D02*
G01X49619Y13514D01*
G01X49619Y13514D02*
G01X49842Y13636D01*
G01X49842Y13636D02*
G01X50096Y13738D01*
G01X50096Y13738D02*
G01X50371Y13809D01*
G01X50371Y13809D02*
G01X50706Y13870D01*
G01X50706Y13870D02*
G01X51041Y13880D01*
G01X51041Y13880D02*
G01X51315Y13829D01*
G01X51315Y13829D02*
G01X51549Y13768D01*
G01X51549Y13768D02*
G01X51925Y13626D01*
G01X51925Y13626D02*
G01X52291Y13433D01*
G01X52291Y13433D02*
G01X52420Y13344D01*
G01X52420Y13344D02*
G01X52077Y13003D01*
G01X52077Y13003D02*
G01X52424Y12595D01*
G01X52424Y12595D02*
G01X52838Y12912D01*
G01X52838Y12912D02*
G01X52875Y12841D01*
G01X52875Y12841D02*
G01X52961Y12712D01*
G01X52961Y12712D02*
G01X53134Y12387D01*
G01X53134Y12387D02*
G01X53266Y12011D01*
G01X53266Y12011D02*
G01X53307Y11808D01*
G01X53307Y11808D02*
G01X53337Y11625D01*
G01X53337Y11625D02*
G01X53337Y11432D01*
G01X53337Y11432D02*
G01X53327Y11157D01*
G01X53327Y11157D02*
G01X53256Y10832D01*
G01X53256Y10832D02*
G01X53185Y10578D01*
G01X53185Y10578D02*
G01X53073Y10324D01*
G01X53073Y10324D02*
G01X52931Y10080D01*
G01X52931Y10080D02*
G01X52819Y9918D01*
G01X52819Y9918D02*
G01X52818Y9909D01*
G01X52818Y9909D02*
G01X52449Y10215D01*
G01X52449Y10215D02*
G01X52097Y9897D01*
G01X52097Y9897D02*
G01X52409Y9496D01*
G01X52409Y9496D02*
G01X52392Y9481D01*
G01X52392Y9481D02*
G01X52210Y9369D01*
G01X52210Y9369D02*
G01X52016Y9247D01*
G01X52016Y9247D02*
G01X51823Y9176D01*
G01X51823Y9176D02*
G01X51590Y9095D01*
G01X51590Y9095D02*
G01X51326Y9024D01*
G01X51326Y9024D02*
G01X51092Y9003D01*
G01X51092Y9003D02*
G01X50909Y8993D01*
G01X50909Y8993D02*
G01X50767Y9003D01*
G01X50767Y9003D02*
G01X50553Y9014D01*
G01X50553Y9014D02*
G01X50289Y9075D01*
G01X50289Y9075D02*
G01X50086Y9135D01*
G01X50086Y9135D02*
G01X49913Y9207D01*
G01X49913Y9207D02*
G01X49730Y9308D01*
G01X49730Y9308D02*
G01X49548Y9400D01*
G01X49548Y9400D02*
G01X49416Y9491D01*
G01X49416Y9491D02*
G01X49412Y9487D01*
G01X49412Y9487D02*
G01X49714Y9849D01*
G01X49714Y9849D02*
G01X49375Y10205D01*
G01X49375Y10205D02*
G01X48980Y9915D01*
G01X48980Y9915D02*
G01X48979Y9918D01*
G01X48979Y9918D02*
G01X48887Y10040D01*
G01X48887Y10040D02*
G01X48786Y10202D01*
G01X48786Y10202D02*
G01X48684Y10385D01*
G01X48684Y10385D02*
G01X48603Y10609D01*
G01X48603Y10609D02*
G01X48532Y10822D01*
G01X48532Y10822D02*
G01X48501Y11015D01*
G01X48501Y11015D02*
G01X48471Y11249D01*
G01X48471Y11249D02*
G01X48460Y11432D01*
G01X48460Y11432D02*
G01X48460Y11432D01*
G01X29410Y11432D02*
G01X29441Y11747D01*
G01X29441Y11747D02*
G01X29492Y12011D01*
G01X29492Y12011D02*
G01X29543Y12234D01*
G01X29543Y12234D02*
G01X29624Y12407D01*
G01X29624Y12407D02*
G01X29715Y12600D01*
G01X29715Y12600D02*
G01X29807Y12752D01*
G01X29807Y12752D02*
G01X29939Y12935D01*
G01X29939Y12935D02*
G01X29941Y12940D01*
G01X29941Y12940D02*
G01X30345Y12646D01*
G01X30345Y12646D02*
G01X30644Y12973D01*
G01X30644Y12973D02*
G01X30323Y13326D01*
G01X30323Y13326D02*
G01X30502Y13460D01*
G01X30502Y13460D02*
G01X30348Y13345D01*
G01X30348Y13345D02*
G01X30325Y13325D01*
G01X30325Y13325D02*
G01X30316Y13320D01*
G01X30316Y13320D02*
G01X30323Y13330D01*
G01X30323Y13330D02*
G01X30396Y13382D01*
G01X30396Y13382D02*
G01X30399Y13385D01*
G01X30399Y13385D02*
G01X30400Y13386D01*
G01X30400Y13386D02*
G01X30451Y13425D01*
G01X30451Y13425D02*
G01X30462Y13433D01*
G01X30462Y13433D02*
G01X30465Y13436D01*
G01X30465Y13436D02*
G01X30569Y13514D01*
G01X30569Y13514D02*
G01X30792Y13636D01*
G01X30792Y13636D02*
G01X31046Y13738D01*
G01X31046Y13738D02*
G01X31321Y13809D01*
G01X31321Y13809D02*
G01X31656Y13870D01*
G01X31656Y13870D02*
G01X31991Y13880D01*
G01X31991Y13880D02*
G01X32265Y13829D01*
G01X32265Y13829D02*
G01X32499Y13768D01*
G01X32499Y13768D02*
G01X32875Y13626D01*
G01X32875Y13626D02*
G01X33241Y13433D01*
G01X33241Y13433D02*
G01X33370Y13344D01*
G01X33370Y13344D02*
G01X33027Y13003D01*
G01X33027Y13003D02*
G01X33374Y12595D01*
G01X33374Y12595D02*
G01X33788Y12912D01*
G01X33788Y12912D02*
G01X33825Y12841D01*
G01X33825Y12841D02*
G01X33911Y12712D01*
G01X33911Y12712D02*
G01X34084Y12387D01*
G01X34084Y12387D02*
G01X34216Y12011D01*
G01X34216Y12011D02*
G01X34257Y11808D01*
G01X34257Y11808D02*
G01X34287Y11625D01*
G01X34287Y11625D02*
G01X34287Y11432D01*
G01X34287Y11432D02*
G01X34277Y11157D01*
G01X34277Y11157D02*
G01X34206Y10832D01*
G01X34206Y10832D02*
G01X34135Y10578D01*
G01X34135Y10578D02*
G01X34023Y10324D01*
G01X34023Y10324D02*
G01X33881Y10080D01*
G01X33881Y10080D02*
G01X33769Y9918D01*
G01X33769Y9918D02*
G01X33768Y9909D01*
G01X33768Y9909D02*
G01X33399Y10215D01*
G01X33399Y10215D02*
G01X33047Y9897D01*
G01X33047Y9897D02*
G01X33359Y9496D01*
G01X33359Y9496D02*
G01X33342Y9481D01*
G01X33342Y9481D02*
G01X33160Y9369D01*
G01X33160Y9369D02*
G01X32966Y9247D01*
G01X32966Y9247D02*
G01X32773Y9176D01*
G01X32773Y9176D02*
G01X32540Y9095D01*
G01X32540Y9095D02*
G01X32276Y9024D01*
G01X32276Y9024D02*
G01X32042Y9003D01*
G01X32042Y9003D02*
G01X31859Y8993D01*
G01X31859Y8993D02*
G01X31717Y9003D01*
G01X31717Y9003D02*
G01X31503Y9014D01*
G01X31503Y9014D02*
G01X31239Y9075D01*
G01X31239Y9075D02*
G01X31036Y9135D01*
G01X31036Y9135D02*
G01X30863Y9207D01*
G01X30863Y9207D02*
G01X30680Y9308D01*
G01X30680Y9308D02*
G01X30498Y9400D01*
G01X30498Y9400D02*
G01X30366Y9491D01*
G01X30366Y9491D02*
G01X30362Y9487D01*
G01X30362Y9487D02*
G01X30664Y9849D01*
G01X30664Y9849D02*
G01X30325Y10205D01*
G01X30325Y10205D02*
G01X29930Y9915D01*
G01X29930Y9915D02*
G01X29929Y9918D01*
G01X29929Y9918D02*
G01X29837Y10040D01*
G01X29837Y10040D02*
G01X29736Y10202D01*
G01X29736Y10202D02*
G01X29634Y10385D01*
G01X29634Y10385D02*
G01X29553Y10609D01*
G01X29553Y10609D02*
G01X29482Y10822D01*
G01X29482Y10822D02*
G01X29451Y11015D01*
G01X29451Y11015D02*
G01X29421Y11249D01*
G01X29421Y11249D02*
G01X29410Y11432D01*
G01X29410Y11432D02*
G01X29410Y11432D01*
G01X10360Y11432D02*
G01X10391Y11747D01*
G01X10391Y11747D02*
G01X10442Y12011D01*
G01X10442Y12011D02*
G01X10493Y12234D01*
G01X10493Y12234D02*
G01X10574Y12407D01*
G01X10574Y12407D02*
G01X10665Y12600D01*
G01X10665Y12600D02*
G01X10757Y12752D01*
G01X10757Y12752D02*
G01X10889Y12935D01*
G01X10889Y12935D02*
G01X10891Y12940D01*
G01X10891Y12940D02*
G01X11295Y12646D01*
G01X11295Y12646D02*
G01X11594Y12973D01*
G01X11594Y12973D02*
G01X11273Y13326D01*
G01X11273Y13326D02*
G01X11452Y13460D01*
G01X11452Y13460D02*
G01X11298Y13345D01*
G01X11298Y13345D02*
G01X11275Y13325D01*
G01X11275Y13325D02*
G01X11266Y13320D01*
G01X11266Y13320D02*
G01X11273Y13330D01*
G01X11273Y13330D02*
G01X11346Y13382D01*
G01X11346Y13382D02*
G01X11349Y13385D01*
G01X11349Y13385D02*
G01X11350Y13386D01*
G01X11350Y13386D02*
G01X11401Y13425D01*
G01X11401Y13425D02*
G01X11412Y13433D01*
G01X11412Y13433D02*
G01X11415Y13436D01*
G01X11415Y13436D02*
G01X11519Y13514D01*
G01X11519Y13514D02*
G01X11742Y13636D01*
G01X11742Y13636D02*
G01X11996Y13738D01*
G01X11996Y13738D02*
G01X12271Y13809D01*
G01X12271Y13809D02*
G01X12606Y13870D01*
G01X12606Y13870D02*
G01X12941Y13880D01*
G01X12941Y13880D02*
G01X13215Y13829D01*
G01X13215Y13829D02*
G01X13449Y13768D01*
G01X13449Y13768D02*
G01X13825Y13626D01*
G01X13825Y13626D02*
G01X14191Y13433D01*
G01X14191Y13433D02*
G01X14320Y13344D01*
G01X14320Y13344D02*
G01X13977Y13003D01*
G01X13977Y13003D02*
G01X14324Y12595D01*
G01X14324Y12595D02*
G01X14738Y12912D01*
G01X14738Y12912D02*
G01X14775Y12841D01*
G01X14775Y12841D02*
G01X14861Y12712D01*
G01X14861Y12712D02*
G01X15034Y12387D01*
G01X15034Y12387D02*
G01X15166Y12011D01*
G01X15166Y12011D02*
G01X15207Y11808D01*
G01X15207Y11808D02*
G01X15237Y11625D01*
G01X15237Y11625D02*
G01X15237Y11432D01*
G01X15237Y11432D02*
G01X15227Y11157D01*
G01X15227Y11157D02*
G01X15156Y10832D01*
G01X15156Y10832D02*
G01X15085Y10578D01*
G01X15085Y10578D02*
G01X14973Y10324D01*
G01X14973Y10324D02*
G01X14831Y10080D01*
G01X14831Y10080D02*
G01X14719Y9918D01*
G01X14719Y9918D02*
G01X14718Y9909D01*
G01X14718Y9909D02*
G01X14349Y10215D01*
G01X14349Y10215D02*
G01X13997Y9897D01*
G01X13997Y9897D02*
G01X14309Y9496D01*
G01X14309Y9496D02*
G01X14292Y9481D01*
G01X14292Y9481D02*
G01X14110Y9369D01*
G01X14110Y9369D02*
G01X13916Y9247D01*
G01X13916Y9247D02*
G01X13723Y9176D01*
G01X13723Y9176D02*
G01X13490Y9095D01*
G01X13490Y9095D02*
G01X13226Y9024D01*
G01X13226Y9024D02*
G01X12992Y9003D01*
G01X12992Y9003D02*
G01X12809Y8993D01*
G01X12809Y8993D02*
G01X12667Y9003D01*
G01X12667Y9003D02*
G01X12453Y9014D01*
G01X12453Y9014D02*
G01X12189Y9075D01*
G01X12189Y9075D02*
G01X11986Y9135D01*
G01X11986Y9135D02*
G01X11813Y9207D01*
G01X11813Y9207D02*
G01X11630Y9308D01*
G01X11630Y9308D02*
G01X11448Y9400D01*
G01X11448Y9400D02*
G01X11316Y9491D01*
G01X11316Y9491D02*
G01X11312Y9487D01*
G01X11312Y9487D02*
G01X11614Y9849D01*
G01X11614Y9849D02*
G01X11275Y10205D01*
G01X11275Y10205D02*
G01X10880Y9915D01*
G01X10880Y9915D02*
G01X10879Y9918D01*
G01X10879Y9918D02*
G01X10787Y10040D01*
G01X10787Y10040D02*
G01X10686Y10202D01*
G01X10686Y10202D02*
G01X10584Y10385D01*
G01X10584Y10385D02*
G01X10503Y10609D01*
G01X10503Y10609D02*
G01X10432Y10822D01*
G01X10432Y10822D02*
G01X10401Y11015D01*
G01X10401Y11015D02*
G01X10371Y11249D01*
G01X10371Y11249D02*
G01X10360Y11432D01*
G01X10360Y11432D02*
G01X10360Y11432D01*
G01X10360Y30482D02*
G01X10391Y30797D01*
G01X10391Y30797D02*
G01X10442Y31061D01*
G01X10442Y31061D02*
G01X10493Y31284D01*
G01X10493Y31284D02*
G01X10574Y31457D01*
G01X10574Y31457D02*
G01X10665Y31650D01*
G01X10665Y31650D02*
G01X10757Y31802D01*
G01X10757Y31802D02*
G01X10889Y31985D01*
G01X10889Y31985D02*
G01X10891Y31990D01*
G01X10891Y31990D02*
G01X11295Y31696D01*
G01X11295Y31696D02*
G01X11594Y32023D01*
G01X11594Y32023D02*
G01X11273Y32376D01*
G01X11273Y32376D02*
G01X11452Y32510D01*
G01X11452Y32510D02*
G01X11298Y32395D01*
G01X11298Y32395D02*
G01X11275Y32375D01*
G01X11275Y32375D02*
G01X11266Y32370D01*
G01X11266Y32370D02*
G01X11273Y32380D01*
G01X11273Y32380D02*
G01X11346Y32432D01*
G01X11346Y32432D02*
G01X11349Y32435D01*
G01X11349Y32435D02*
G01X11350Y32436D01*
G01X11350Y32436D02*
G01X11401Y32475D01*
G01X11401Y32475D02*
G01X11412Y32483D01*
G01X11412Y32483D02*
G01X11415Y32486D01*
G01X11415Y32486D02*
G01X11519Y32564D01*
G01X11519Y32564D02*
G01X11742Y32686D01*
G01X11742Y32686D02*
G01X11996Y32788D01*
G01X11996Y32788D02*
G01X12271Y32859D01*
G01X12271Y32859D02*
G01X12606Y32920D01*
G01X12606Y32920D02*
G01X12941Y32930D01*
G01X12941Y32930D02*
G01X13215Y32879D01*
G01X13215Y32879D02*
G01X13449Y32818D01*
G01X13449Y32818D02*
G01X13825Y32676D01*
G01X13825Y32676D02*
G01X14191Y32483D01*
G01X14191Y32483D02*
G01X14320Y32394D01*
G01X14320Y32394D02*
G01X13977Y32053D01*
G01X13977Y32053D02*
G01X14324Y31645D01*
G01X14324Y31645D02*
G01X14738Y31962D01*
G01X14738Y31962D02*
G01X14775Y31891D01*
G01X14775Y31891D02*
G01X14861Y31762D01*
G01X14861Y31762D02*
G01X15034Y31437D01*
G01X15034Y31437D02*
G01X15166Y31061D01*
G01X15166Y31061D02*
G01X15207Y30858D01*
G01X15207Y30858D02*
G01X15237Y30675D01*
G01X15237Y30675D02*
G01X15237Y30482D01*
G01X15237Y30482D02*
G01X15227Y30207D01*
G01X15227Y30207D02*
G01X15156Y29882D01*
G01X15156Y29882D02*
G01X15085Y29628D01*
G01X15085Y29628D02*
G01X14973Y29374D01*
G01X14973Y29374D02*
G01X14831Y29130D01*
G01X14831Y29130D02*
G01X14719Y28968D01*
G01X14719Y28968D02*
G01X14718Y28959D01*
G01X14718Y28959D02*
G01X14349Y29265D01*
G01X14349Y29265D02*
G01X13997Y28947D01*
G01X13997Y28947D02*
G01X14309Y28546D01*
G01X14309Y28546D02*
G01X14292Y28531D01*
G01X14292Y28531D02*
G01X14110Y28419D01*
G01X14110Y28419D02*
G01X13916Y28297D01*
G01X13916Y28297D02*
G01X13723Y28226D01*
G01X13723Y28226D02*
G01X13490Y28145D01*
G01X13490Y28145D02*
G01X13226Y28074D01*
G01X13226Y28074D02*
G01X12992Y28053D01*
G01X12992Y28053D02*
G01X12809Y28043D01*
G01X12809Y28043D02*
G01X12667Y28053D01*
G01X12667Y28053D02*
G01X12453Y28064D01*
G01X12453Y28064D02*
G01X12189Y28125D01*
G01X12189Y28125D02*
G01X11986Y28185D01*
G01X11986Y28185D02*
G01X11813Y28257D01*
G01X11813Y28257D02*
G01X11630Y28358D01*
G01X11630Y28358D02*
G01X11448Y28450D01*
G01X11448Y28450D02*
G01X11316Y28541D01*
G01X11316Y28541D02*
G01X11312Y28537D01*
G01X11312Y28537D02*
G01X11614Y28899D01*
G01X11614Y28899D02*
G01X11275Y29255D01*
G01X11275Y29255D02*
G01X10880Y28965D01*
G01X10880Y28965D02*
G01X10879Y28968D01*
G01X10879Y28968D02*
G01X10787Y29090D01*
G01X10787Y29090D02*
G01X10686Y29252D01*
G01X10686Y29252D02*
G01X10584Y29435D01*
G01X10584Y29435D02*
G01X10503Y29659D01*
G01X10503Y29659D02*
G01X10432Y29872D01*
G01X10432Y29872D02*
G01X10401Y30065D01*
G01X10401Y30065D02*
G01X10371Y30299D01*
G01X10371Y30299D02*
G01X10360Y30482D01*
G01X10360Y30482D02*
G01X10360Y30482D01*
G01X29410Y30482D02*
G01X29441Y30797D01*
G01X29441Y30797D02*
G01X29492Y31061D01*
G01X29492Y31061D02*
G01X29543Y31284D01*
G01X29543Y31284D02*
G01X29624Y31457D01*
G01X29624Y31457D02*
G01X29715Y31650D01*
G01X29715Y31650D02*
G01X29807Y31802D01*
G01X29807Y31802D02*
G01X29939Y31985D01*
G01X29939Y31985D02*
G01X29941Y31990D01*
G01X29941Y31990D02*
G01X30345Y31696D01*
G01X30345Y31696D02*
G01X30644Y32023D01*
G01X30644Y32023D02*
G01X30323Y32376D01*
G01X30323Y32376D02*
G01X30502Y32510D01*
G01X30502Y32510D02*
G01X30348Y32395D01*
G01X30348Y32395D02*
G01X30325Y32375D01*
G01X30325Y32375D02*
G01X30316Y32370D01*
G01X30316Y32370D02*
G01X30323Y32380D01*
G01X30323Y32380D02*
G01X30396Y32432D01*
G01X30396Y32432D02*
G01X30399Y32435D01*
G01X30399Y32435D02*
G01X30400Y32436D01*
G01X30400Y32436D02*
G01X30451Y32475D01*
G01X30451Y32475D02*
G01X30462Y32483D01*
G01X30462Y32483D02*
G01X30465Y32486D01*
G01X30465Y32486D02*
G01X30569Y32564D01*
G01X30569Y32564D02*
G01X30792Y32686D01*
G01X30792Y32686D02*
G01X31046Y32788D01*
G01X31046Y32788D02*
G01X31321Y32859D01*
G01X31321Y32859D02*
G01X31656Y32920D01*
G01X31656Y32920D02*
G01X31991Y32930D01*
G01X31991Y32930D02*
G01X32265Y32879D01*
G01X32265Y32879D02*
G01X32499Y32818D01*
G01X32499Y32818D02*
G01X32875Y32676D01*
G01X32875Y32676D02*
G01X33241Y32483D01*
G01X33241Y32483D02*
G01X33370Y32394D01*
G01X33370Y32394D02*
G01X33027Y32053D01*
G01X33027Y32053D02*
G01X33374Y31645D01*
G01X33374Y31645D02*
G01X33788Y31962D01*
G01X33788Y31962D02*
G01X33825Y31891D01*
G01X33825Y31891D02*
G01X33911Y31762D01*
G01X33911Y31762D02*
G01X34084Y31437D01*
G01X34084Y31437D02*
G01X34216Y31061D01*
G01X34216Y31061D02*
G01X34257Y30858D01*
G01X34257Y30858D02*
G01X34287Y30675D01*
G01X34287Y30675D02*
G01X34287Y30482D01*
G01X34287Y30482D02*
G01X34277Y30207D01*
G01X34277Y30207D02*
G01X34206Y29882D01*
G01X34206Y29882D02*
G01X34135Y29628D01*
G01X34135Y29628D02*
G01X34023Y29374D01*
G01X34023Y29374D02*
G01X33881Y29130D01*
G01X33881Y29130D02*
G01X33769Y28968D01*
G01X33769Y28968D02*
G01X33768Y28959D01*
G01X33768Y28959D02*
G01X33399Y29265D01*
G01X33399Y29265D02*
G01X33047Y28947D01*
G01X33047Y28947D02*
G01X33359Y28546D01*
G01X33359Y28546D02*
G01X33342Y28531D01*
G01X33342Y28531D02*
G01X33160Y28419D01*
G01X33160Y28419D02*
G01X32966Y28297D01*
G01X32966Y28297D02*
G01X32773Y28226D01*
G01X32773Y28226D02*
G01X32540Y28145D01*
G01X32540Y28145D02*
G01X32276Y28074D01*
G01X32276Y28074D02*
G01X32042Y28053D01*
G01X32042Y28053D02*
G01X31859Y28043D01*
G01X31859Y28043D02*
G01X31717Y28053D01*
G01X31717Y28053D02*
G01X31503Y28064D01*
G01X31503Y28064D02*
G01X31239Y28125D01*
G01X31239Y28125D02*
G01X31036Y28185D01*
G01X31036Y28185D02*
G01X30863Y28257D01*
G01X30863Y28257D02*
G01X30680Y28358D01*
G01X30680Y28358D02*
G01X30498Y28450D01*
G01X30498Y28450D02*
G01X30366Y28541D01*
G01X30366Y28541D02*
G01X30362Y28537D01*
G01X30362Y28537D02*
G01X30664Y28899D01*
G01X30664Y28899D02*
G01X30325Y29255D01*
G01X30325Y29255D02*
G01X29930Y28965D01*
G01X29930Y28965D02*
G01X29929Y28968D01*
G01X29929Y28968D02*
G01X29837Y29090D01*
G01X29837Y29090D02*
G01X29736Y29252D01*
G01X29736Y29252D02*
G01X29634Y29435D01*
G01X29634Y29435D02*
G01X29553Y29659D01*
G01X29553Y29659D02*
G01X29482Y29872D01*
G01X29482Y29872D02*
G01X29451Y30065D01*
G01X29451Y30065D02*
G01X29421Y30299D01*
G01X29421Y30299D02*
G01X29410Y30482D01*
G01X29410Y30482D02*
G01X29410Y30482D01*
G01X48460Y30482D02*
G01X48491Y30797D01*
G01X48491Y30797D02*
G01X48542Y31061D01*
G01X48542Y31061D02*
G01X48593Y31284D01*
G01X48593Y31284D02*
G01X48674Y31457D01*
G01X48674Y31457D02*
G01X48765Y31650D01*
G01X48765Y31650D02*
G01X48857Y31802D01*
G01X48857Y31802D02*
G01X48989Y31985D01*
G01X48989Y31985D02*
G01X48991Y31990D01*
G01X48991Y31990D02*
G01X49395Y31696D01*
G01X49395Y31696D02*
G01X49694Y32023D01*
G01X49694Y32023D02*
G01X49373Y32376D01*
G01X49373Y32376D02*
G01X49552Y32510D01*
G01X49552Y32510D02*
G01X49398Y32395D01*
G01X49398Y32395D02*
G01X49375Y32375D01*
G01X49375Y32375D02*
G01X49366Y32370D01*
G01X49366Y32370D02*
G01X49373Y32380D01*
G01X49373Y32380D02*
G01X49446Y32432D01*
G01X49446Y32432D02*
G01X49449Y32435D01*
G01X49449Y32435D02*
G01X49450Y32436D01*
G01X49450Y32436D02*
G01X49501Y32475D01*
G01X49501Y32475D02*
G01X49512Y32483D01*
G01X49512Y32483D02*
G01X49515Y32486D01*
G01X49515Y32486D02*
G01X49619Y32564D01*
G01X49619Y32564D02*
G01X49842Y32686D01*
G01X49842Y32686D02*
G01X50096Y32788D01*
G01X50096Y32788D02*
G01X50371Y32859D01*
G01X50371Y32859D02*
G01X50706Y32920D01*
G01X50706Y32920D02*
G01X51041Y32930D01*
G01X51041Y32930D02*
G01X51315Y32879D01*
G01X51315Y32879D02*
G01X51549Y32818D01*
G01X51549Y32818D02*
G01X51925Y32676D01*
G01X51925Y32676D02*
G01X52291Y32483D01*
G01X52291Y32483D02*
G01X52420Y32394D01*
G01X52420Y32394D02*
G01X52077Y32053D01*
G01X52077Y32053D02*
G01X52424Y31645D01*
G01X52424Y31645D02*
G01X52838Y31962D01*
G01X52838Y31962D02*
G01X52875Y31891D01*
G01X52875Y31891D02*
G01X52961Y31762D01*
G01X52961Y31762D02*
G01X53134Y31437D01*
G01X53134Y31437D02*
G01X53266Y31061D01*
G01X53266Y31061D02*
G01X53307Y30858D01*
G01X53307Y30858D02*
G01X53337Y30675D01*
G01X53337Y30675D02*
G01X53337Y30482D01*
G01X53337Y30482D02*
G01X53327Y30207D01*
G01X53327Y30207D02*
G01X53256Y29882D01*
G01X53256Y29882D02*
G01X53185Y29628D01*
G01X53185Y29628D02*
G01X53073Y29374D01*
G01X53073Y29374D02*
G01X52931Y29130D01*
G01X52931Y29130D02*
G01X52819Y28968D01*
G01X52819Y28968D02*
G01X52818Y28959D01*
G01X52818Y28959D02*
G01X52449Y29265D01*
G01X52449Y29265D02*
G01X52097Y28947D01*
G01X52097Y28947D02*
G01X52409Y28546D01*
G01X52409Y28546D02*
G01X52392Y28531D01*
G01X52392Y28531D02*
G01X52210Y28419D01*
G01X52210Y28419D02*
G01X52016Y28297D01*
G01X52016Y28297D02*
G01X51823Y28226D01*
G01X51823Y28226D02*
G01X51590Y28145D01*
G01X51590Y28145D02*
G01X51326Y28074D01*
G01X51326Y28074D02*
G01X51092Y28053D01*
G01X51092Y28053D02*
G01X50909Y28043D01*
G01X50909Y28043D02*
G01X50767Y28053D01*
G01X50767Y28053D02*
G01X50553Y28064D01*
G01X50553Y28064D02*
G01X50289Y28125D01*
G01X50289Y28125D02*
G01X50086Y28185D01*
G01X50086Y28185D02*
G01X49913Y28257D01*
G01X49913Y28257D02*
G01X49730Y28358D01*
G01X49730Y28358D02*
G01X49548Y28450D01*
G01X49548Y28450D02*
G01X49416Y28541D01*
G01X49416Y28541D02*
G01X49412Y28537D01*
G01X49412Y28537D02*
G01X49714Y28899D01*
G01X49714Y28899D02*
G01X49375Y29255D01*
G01X49375Y29255D02*
G01X48980Y28965D01*
G01X48980Y28965D02*
G01X48979Y28968D01*
G01X48979Y28968D02*
G01X48887Y29090D01*
G01X48887Y29090D02*
G01X48786Y29252D01*
G01X48786Y29252D02*
G01X48684Y29435D01*
G01X48684Y29435D02*
G01X48603Y29659D01*
G01X48603Y29659D02*
G01X48532Y29872D01*
G01X48532Y29872D02*
G01X48501Y30065D01*
G01X48501Y30065D02*
G01X48471Y30299D01*
G01X48471Y30299D02*
G01X48460Y30482D01*
G01X48460Y30482D02*
G01X48460Y30482D01*
G75*
G01X61900Y87900D02*
G02X63900Y85900I0J-2000D01*
G01*
G75*
G01X63900Y2000D02*
G02X61900Y0I-2000J0D01*
G01*
G75*
G01X2000Y0D02*
G02X0Y2000I0J2000D01*
G01*
G75*
G01X0Y85900D02*
G02X2000Y87900I2000J0D01*
G01*

%LPD*%
M00*
M02*
