G04 Layer: TopSilkLayer*
G04 EasyEDA v6.4.7, 2020-12-12T13:13:04+01:00*
G04 d11925a588f84334974d7b2f1f55f34c,4d97e48eab474e129cc19cc013e78dee,10*
G04 Gerber Generator version 0.2*
G04 Scale: 100 percent, Rotated: No, Reflected: No *
G04 Dimensions in millimeters *
G04 leading zeros omitted , absolute positions ,3 integer and 3 decimal *
%FSLAX33Y33*%
%MOMM*%
G90*
D02*

%ADD10C,0.254000*%
%ADD23C,0.203200*%
%ADD24C,0.203200*%
%ADD25C,0.200660*%
%ADD26C,0.152400*%

%LPD*%
G54D10*
G01X20795Y79264D02*
G01X20795Y79518D01*
G01X20795Y74184D02*
G01X20795Y73930D01*
G01X20795Y79264D02*
G01X21557Y79264D01*
G01X20033Y79264D02*
G01X20795Y79264D01*
G01X20033Y74184D02*
G01X20033Y79264D01*
G01X20795Y74184D02*
G01X20033Y74184D01*
G01X21557Y74184D02*
G01X20795Y74184D01*
G01X21557Y79264D02*
G01X21557Y74184D01*
G01X23716Y79264D02*
G01X23716Y79518D01*
G01X23716Y74184D02*
G01X23716Y73930D01*
G01X23716Y79264D02*
G01X24478Y79264D01*
G01X22954Y79264D02*
G01X23716Y79264D01*
G01X22954Y74184D02*
G01X22954Y79264D01*
G01X23716Y74184D02*
G01X22954Y74184D01*
G01X24478Y74184D02*
G01X23716Y74184D01*
G01X24478Y79264D02*
G01X24478Y74184D01*
G54D23*
G01X62451Y85614D02*
G01X29431Y85614D01*
G01X29431Y67834D01*
G01X62451Y67834D01*
G01X62451Y85614D01*
G54D24*
G01X62451Y80534D02*
G01X63721Y80534D01*
G01X63721Y80534D02*
G01X63721Y72914D01*
G01X63721Y72914D02*
G01X62451Y72914D01*
G54D10*
G01X32269Y54118D02*
G01X37707Y56653D01*
G01X34846Y48593D02*
G01X32310Y54030D01*
G01X40257Y51197D02*
G01X37721Y56635D01*
G01X34846Y48593D02*
G01X40284Y51128D01*
G01X2888Y79645D02*
G01X8888Y79645D01*
G01X2888Y73549D02*
G01X2888Y79548D01*
G01X8893Y73622D02*
G01X8893Y79622D01*
G01X2888Y73549D02*
G01X8888Y73549D01*
G01X32186Y62881D02*
G01X37624Y65416D01*
G01X34763Y57356D02*
G01X32227Y62793D01*
G01X40174Y59960D02*
G01X37638Y65398D01*
G01X34763Y57356D02*
G01X40201Y59891D01*
G01X23379Y54118D02*
G01X28817Y56653D01*
G01X25956Y48593D02*
G01X23420Y54030D01*
G01X31367Y51197D02*
G01X28831Y56635D01*
G01X25956Y48593D02*
G01X31394Y51128D01*
G01X23335Y62881D02*
G01X28773Y65416D01*
G01X25912Y57356D02*
G01X23376Y62793D01*
G01X31323Y59960D02*
G01X28787Y65398D01*
G01X25912Y57356D02*
G01X31350Y59891D01*
G54D25*
G01X15080Y71644D02*
G01X15080Y81804D01*
G01X12540Y81804D01*
G01X12540Y71644D01*
G01X15080Y71644D01*
G54D10*
G01X6894Y63035D02*
G01X18694Y63035D01*
G01X18694Y63035D02*
G01X18694Y51035D01*
G01X18694Y51035D02*
G01X6894Y51035D01*
G01X6894Y51035D02*
G01X6894Y63035D01*
G01X10000Y58051D02*
G01X15588Y58051D01*
G01X6952Y59067D02*
G01X8984Y59067D01*
G01X6952Y55003D02*
G01X8984Y55003D01*
G01X16604Y59067D02*
G01X18636Y59067D01*
G01X16604Y55003D02*
G01X18636Y55003D01*
G01X44994Y63035D02*
G01X56794Y63035D01*
G01X56794Y63035D02*
G01X56794Y51035D01*
G01X56794Y51035D02*
G01X44994Y51035D01*
G01X44994Y51035D02*
G01X44994Y63035D01*
G01X48100Y58051D02*
G01X53688Y58051D01*
G01X45052Y59067D02*
G01X47084Y59067D01*
G01X45052Y55003D02*
G01X47084Y55003D01*
G01X54704Y59067D02*
G01X56736Y59067D01*
G01X54704Y55003D02*
G01X56736Y55003D01*
G54D26*
G01X2634Y71781D02*
G01X2634Y70691D01*
G01X3361Y71781D02*
G01X3361Y70691D01*
G01X2634Y71263D02*
G01X3361Y71263D01*
G01X4329Y71626D02*
G01X4275Y71730D01*
G01X4120Y71781D01*
G01X4016Y71781D01*
G01X3861Y71730D01*
G01X3757Y71572D01*
G01X3704Y71313D01*
G01X3704Y71054D01*
G01X3757Y70846D01*
G01X3861Y70742D01*
G01X4016Y70691D01*
G01X4070Y70691D01*
G01X4225Y70742D01*
G01X4329Y70846D01*
G01X4379Y71001D01*
G01X4379Y71054D01*
G01X4329Y71209D01*
G01X4225Y71313D01*
G01X4070Y71364D01*
G01X4016Y71364D01*
G01X3861Y71313D01*
G01X3757Y71209D01*
G01X3704Y71054D01*
G01X61308Y4598D02*
G01X61308Y3508D01*
G01X62035Y4598D02*
G01X62035Y3508D01*
G01X61308Y4080D02*
G01X62035Y4080D01*
G01X63107Y4598D02*
G01X62586Y3508D01*
G01X62378Y4598D02*
G01X63107Y4598D01*
G01X2507Y4471D02*
G01X2507Y3381D01*
G01X3234Y4471D02*
G01X3234Y3381D01*
G01X2507Y3953D02*
G01X3234Y3953D01*
G01X3838Y4471D02*
G01X3681Y4420D01*
G01X3630Y4316D01*
G01X3630Y4212D01*
G01X3681Y4107D01*
G01X3785Y4054D01*
G01X3993Y4003D01*
G01X4148Y3953D01*
G01X4252Y3848D01*
G01X4306Y3744D01*
G01X4306Y3587D01*
G01X4252Y3483D01*
G01X4202Y3432D01*
G01X4044Y3381D01*
G01X3838Y3381D01*
G01X3681Y3432D01*
G01X3630Y3483D01*
G01X3577Y3587D01*
G01X3577Y3744D01*
G01X3630Y3848D01*
G01X3734Y3953D01*
G01X3889Y4003D01*
G01X4098Y4054D01*
G01X4202Y4107D01*
G01X4252Y4212D01*
G01X4252Y4316D01*
G01X4202Y4420D01*
G01X4044Y4471D01*
G01X3838Y4471D01*
G01X18499Y75962D02*
G01X19589Y75962D01*
G01X18499Y75962D02*
G01X18499Y76429D01*
G01X18550Y76584D01*
G01X18603Y76637D01*
G01X18708Y76688D01*
G01X18812Y76688D01*
G01X18916Y76637D01*
G01X18967Y76584D01*
G01X19017Y76429D01*
G01X19017Y75962D01*
G01X19017Y76325D02*
G01X19589Y76688D01*
G01X18708Y77031D02*
G01X18654Y77135D01*
G01X18499Y77292D01*
G01X19589Y77292D01*
G01X24849Y75708D02*
G01X25939Y75708D01*
G01X24849Y75708D02*
G01X24849Y76175D01*
G01X24900Y76330D01*
G01X24953Y76383D01*
G01X25058Y76434D01*
G01X25162Y76434D01*
G01X25266Y76383D01*
G01X25317Y76330D01*
G01X25367Y76175D01*
G01X25367Y75708D01*
G01X25367Y76071D02*
G01X25939Y76434D01*
G01X25108Y76830D02*
G01X25058Y76830D01*
G01X24953Y76881D01*
G01X24900Y76934D01*
G01X24849Y77038D01*
G01X24849Y77244D01*
G01X24900Y77348D01*
G01X24953Y77402D01*
G01X25058Y77452D01*
G01X25162Y77452D01*
G01X25266Y77402D01*
G01X25421Y77298D01*
G01X25939Y76777D01*
G01X25939Y77506D01*
G01X60536Y76216D02*
G01X61316Y76216D01*
G01X61471Y76266D01*
G01X61575Y76370D01*
G01X61626Y76528D01*
G01X61626Y76632D01*
G01X61575Y76787D01*
G01X61471Y76891D01*
G01X61316Y76942D01*
G01X60536Y76942D01*
G01X60745Y77285D02*
G01X60691Y77389D01*
G01X60536Y77546D01*
G01X61626Y77546D01*
G01X30978Y71898D02*
G01X31014Y71829D01*
G01X31118Y71725D01*
G01X30389Y71725D01*
G01X31118Y71288D02*
G01X31082Y71392D01*
G01X30978Y71461D01*
G01X30806Y71496D01*
G01X30701Y71496D01*
G01X30529Y71461D01*
G01X30425Y71392D01*
G01X30389Y71288D01*
G01X30389Y71219D01*
G01X30425Y71115D01*
G01X30529Y71047D01*
G01X30701Y71011D01*
G01X30806Y71011D01*
G01X30978Y71047D01*
G01X31082Y71115D01*
G01X31118Y71219D01*
G01X31118Y71288D01*
G01X33518Y71898D02*
G01X33554Y71829D01*
G01X33658Y71725D01*
G01X32929Y71725D01*
G01X33554Y71080D02*
G01X33622Y71115D01*
G01X33658Y71219D01*
G01X33658Y71288D01*
G01X33622Y71392D01*
G01X33518Y71461D01*
G01X33346Y71496D01*
G01X33173Y71496D01*
G01X33033Y71461D01*
G01X32965Y71392D01*
G01X32929Y71288D01*
G01X32929Y71252D01*
G01X32965Y71148D01*
G01X33033Y71080D01*
G01X33137Y71047D01*
G01X33173Y71047D01*
G01X33277Y71080D01*
G01X33346Y71148D01*
G01X33381Y71252D01*
G01X33381Y71288D01*
G01X33346Y71392D01*
G01X33277Y71461D01*
G01X33173Y71496D01*
G01X36058Y71898D02*
G01X36094Y71829D01*
G01X36198Y71725D01*
G01X35469Y71725D01*
G01X36198Y71148D02*
G01X35713Y71496D01*
G01X35713Y70975D01*
G01X36198Y71148D02*
G01X35469Y71148D01*
G01X38598Y71898D02*
G01X38634Y71829D01*
G01X38738Y71725D01*
G01X38009Y71725D01*
G01X38738Y71080D02*
G01X38738Y71428D01*
G01X38426Y71461D01*
G01X38461Y71428D01*
G01X38494Y71323D01*
G01X38494Y71219D01*
G01X38461Y71115D01*
G01X38390Y71047D01*
G01X38286Y71011D01*
G01X38217Y71011D01*
G01X38113Y71047D01*
G01X38045Y71115D01*
G01X38009Y71219D01*
G01X38009Y71323D01*
G01X38045Y71428D01*
G01X38080Y71461D01*
G01X38149Y71496D01*
G01X41278Y71621D02*
G01X40549Y71898D01*
G01X41278Y71621D02*
G01X40549Y71344D01*
G01X40793Y71793D02*
G01X40793Y71448D01*
G01X41278Y70907D02*
G01X41242Y71011D01*
G01X41138Y71080D01*
G01X40966Y71115D01*
G01X40861Y71115D01*
G01X40689Y71080D01*
G01X40585Y71011D01*
G01X40549Y70907D01*
G01X40549Y70838D01*
G01X40585Y70734D01*
G01X40689Y70666D01*
G01X40861Y70630D01*
G01X40966Y70630D01*
G01X41138Y70666D01*
G01X41242Y70734D01*
G01X41278Y70838D01*
G01X41278Y70907D01*
G01X43818Y71621D02*
G01X43089Y71898D01*
G01X43818Y71621D02*
G01X43089Y71344D01*
G01X43333Y71793D02*
G01X43333Y71448D01*
G01X43678Y71115D02*
G01X43714Y71047D01*
G01X43818Y70942D01*
G01X43089Y70942D01*
G01X46358Y71621D02*
G01X45629Y71898D01*
G01X46358Y71621D02*
G01X45629Y71344D01*
G01X45873Y71793D02*
G01X45873Y71448D01*
G01X46183Y71080D02*
G01X46218Y71080D01*
G01X46287Y71047D01*
G01X46322Y71011D01*
G01X46358Y70942D01*
G01X46358Y70803D01*
G01X46322Y70734D01*
G01X46287Y70699D01*
G01X46218Y70666D01*
G01X46150Y70666D01*
G01X46081Y70699D01*
G01X45977Y70767D01*
G01X45629Y71115D01*
G01X45629Y70630D01*
G01X48771Y71621D02*
G01X48042Y71898D01*
G01X48771Y71621D02*
G01X48042Y71344D01*
G01X48286Y71793D02*
G01X48286Y71448D01*
G01X48771Y71047D02*
G01X48771Y70666D01*
G01X48494Y70871D01*
G01X48494Y70767D01*
G01X48459Y70699D01*
G01X48423Y70666D01*
G01X48319Y70630D01*
G01X48250Y70630D01*
G01X48146Y70666D01*
G01X48078Y70734D01*
G01X48042Y70838D01*
G01X48042Y70942D01*
G01X48078Y71047D01*
G01X48113Y71080D01*
G01X48182Y71115D01*
G01X53866Y72025D02*
G01X53333Y72025D01*
G01X53866Y72025D02*
G01X53866Y71796D01*
G01X53841Y71720D01*
G01X53815Y71694D01*
G01X53765Y71669D01*
G01X53714Y71669D01*
G01X53663Y71694D01*
G01X53638Y71720D01*
G01X53612Y71796D01*
G01X53612Y72025D01*
G01X53612Y71847D02*
G01X53333Y71669D01*
G01X53790Y71146D02*
G01X53841Y71196D01*
G01X53866Y71273D01*
G01X53866Y71374D01*
G01X53841Y71450D01*
G01X53790Y71501D01*
G01X53739Y71501D01*
G01X53688Y71476D01*
G01X53663Y71450D01*
G01X53638Y71400D01*
G01X53587Y71247D01*
G01X53561Y71196D01*
G01X53536Y71171D01*
G01X53485Y71146D01*
G01X53409Y71146D01*
G01X53358Y71196D01*
G01X53333Y71273D01*
G01X53333Y71374D01*
G01X53358Y71450D01*
G01X53409Y71501D01*
G01X53866Y70800D02*
G01X53333Y70800D01*
G01X53866Y70978D02*
G01X53866Y70622D01*
G01X56279Y71771D02*
G01X56330Y71796D01*
G01X56381Y71847D01*
G01X56406Y71898D01*
G01X56406Y71999D01*
G01X56381Y72050D01*
G01X56330Y72101D01*
G01X56279Y72126D01*
G01X56203Y72152D01*
G01X56076Y72152D01*
G01X56000Y72126D01*
G01X55949Y72101D01*
G01X55898Y72050D01*
G01X55873Y71999D01*
G01X55873Y71898D01*
G01X55898Y71847D01*
G01X55949Y71796D01*
G01X56000Y71771D01*
G01X56076Y71771D01*
G01X56076Y71898D02*
G01X56076Y71771D01*
G01X56406Y71603D02*
G01X55873Y71603D01*
G01X56406Y71603D02*
G01X55873Y71247D01*
G01X56406Y71247D02*
G01X55873Y71247D01*
G01X56406Y71080D02*
G01X55873Y71080D01*
G01X56406Y71080D02*
G01X56406Y70902D01*
G01X56381Y70826D01*
G01X56330Y70775D01*
G01X56279Y70749D01*
G01X56203Y70724D01*
G01X56076Y70724D01*
G01X56000Y70749D01*
G01X55949Y70775D01*
G01X55898Y70826D01*
G01X55873Y70902D01*
G01X55873Y71080D01*
G01X58946Y72152D02*
G01X58413Y72152D01*
G01X58946Y72152D02*
G01X58946Y71923D01*
G01X58921Y71847D01*
G01X58895Y71821D01*
G01X58845Y71796D01*
G01X58794Y71796D01*
G01X58743Y71821D01*
G01X58718Y71847D01*
G01X58692Y71923D01*
G01X58692Y72152D01*
G01X58692Y71974D02*
G01X58413Y71796D01*
G01X58946Y71425D02*
G01X58413Y71628D01*
G01X58946Y71425D02*
G01X58413Y71222D01*
G01X58591Y71552D02*
G01X58591Y71298D01*
G01X58946Y71054D02*
G01X58413Y70927D01*
G01X58946Y70800D02*
G01X58413Y70927D01*
G01X58946Y70800D02*
G01X58413Y70673D01*
G01X58946Y70546D02*
G01X58413Y70673D01*
G01X58819Y82388D02*
G01X58286Y82388D01*
G01X58819Y82566D02*
G01X58819Y82210D01*
G01X58819Y82042D02*
G01X58286Y81687D01*
G01X58819Y81687D02*
G01X58286Y82042D01*
G01X58819Y81367D02*
G01X58794Y81417D01*
G01X58743Y81468D01*
G01X58692Y81494D01*
G01X58616Y81519D01*
G01X58489Y81519D01*
G01X58413Y81494D01*
G01X58362Y81468D01*
G01X58311Y81417D01*
G01X58286Y81367D01*
G01X58286Y81265D01*
G01X58311Y81214D01*
G01X58362Y81163D01*
G01X58413Y81138D01*
G01X58489Y81113D01*
G01X58616Y81113D01*
G01X58692Y81138D01*
G01X58743Y81163D01*
G01X58794Y81214D01*
G01X58819Y81265D01*
G01X58819Y81367D01*
G01X56279Y82439D02*
G01X55746Y82439D01*
G01X56279Y82439D02*
G01X56279Y82210D01*
G01X56254Y82134D01*
G01X56228Y82108D01*
G01X56178Y82083D01*
G01X56127Y82083D01*
G01X56076Y82108D01*
G01X56051Y82134D01*
G01X56025Y82210D01*
G01X56025Y82439D01*
G01X56025Y82261D02*
G01X55746Y82083D01*
G01X56279Y81915D02*
G01X55746Y81560D01*
G01X56279Y81560D02*
G01X55746Y81915D01*
G01X56279Y81392D02*
G01X55746Y81392D01*
G01X53739Y82058D02*
G01X53790Y82083D01*
G01X53841Y82134D01*
G01X53866Y82185D01*
G01X53866Y82286D01*
G01X53841Y82337D01*
G01X53790Y82388D01*
G01X53739Y82413D01*
G01X53663Y82439D01*
G01X53536Y82439D01*
G01X53460Y82413D01*
G01X53409Y82388D01*
G01X53358Y82337D01*
G01X53333Y82286D01*
G01X53333Y82185D01*
G01X53358Y82134D01*
G01X53409Y82083D01*
G01X53460Y82058D01*
G01X53536Y82058D01*
G01X53536Y82185D02*
G01X53536Y82058D01*
G01X53866Y81890D02*
G01X53333Y81890D01*
G01X53866Y81890D02*
G01X53333Y81534D01*
G01X53866Y81534D02*
G01X53333Y81534D01*
G01X53866Y81367D02*
G01X53333Y81367D01*
G01X53866Y81367D02*
G01X53866Y81189D01*
G01X53841Y81113D01*
G01X53790Y81062D01*
G01X53739Y81036D01*
G01X53663Y81011D01*
G01X53536Y81011D01*
G01X53460Y81036D01*
G01X53409Y81062D01*
G01X53358Y81113D01*
G01X53333Y81189D01*
G01X53333Y81367D01*
G01X51199Y82058D02*
G01X51250Y82083D01*
G01X51301Y82134D01*
G01X51326Y82185D01*
G01X51326Y82286D01*
G01X51301Y82337D01*
G01X51250Y82388D01*
G01X51199Y82413D01*
G01X51123Y82439D01*
G01X50996Y82439D01*
G01X50920Y82413D01*
G01X50869Y82388D01*
G01X50818Y82337D01*
G01X50793Y82286D01*
G01X50793Y82185D01*
G01X50818Y82134D01*
G01X50869Y82083D01*
G01X50920Y82058D01*
G01X50996Y82058D01*
G01X50996Y82185D02*
G01X50996Y82058D01*
G01X51326Y81890D02*
G01X50793Y81890D01*
G01X51326Y81890D02*
G01X50793Y81534D01*
G01X51326Y81534D02*
G01X50793Y81534D01*
G01X51326Y81367D02*
G01X50793Y81367D01*
G01X51326Y81367D02*
G01X51326Y81189D01*
G01X51301Y81113D01*
G01X51250Y81062D01*
G01X51199Y81036D01*
G01X51123Y81011D01*
G01X50996Y81011D01*
G01X50920Y81036D01*
G01X50869Y81062D01*
G01X50818Y81113D01*
G01X50793Y81189D01*
G01X50793Y81367D01*
G01X48723Y82022D02*
G01X48758Y82022D01*
G01X48827Y81989D01*
G01X48862Y81953D01*
G01X48898Y81885D01*
G01X48898Y81745D01*
G01X48862Y81677D01*
G01X48827Y81641D01*
G01X48758Y81608D01*
G01X48690Y81608D01*
G01X48621Y81641D01*
G01X48517Y81712D01*
G01X48169Y82058D01*
G01X48169Y81572D01*
G01X46358Y81989D02*
G01X46358Y81608D01*
G01X46081Y81816D01*
G01X46081Y81712D01*
G01X46046Y81641D01*
G01X46010Y81608D01*
G01X45906Y81572D01*
G01X45837Y81572D01*
G01X45733Y81608D01*
G01X45665Y81677D01*
G01X45629Y81781D01*
G01X45629Y81885D01*
G01X45665Y81989D01*
G01X45700Y82022D01*
G01X45769Y82058D01*
G01X43691Y81712D02*
G01X43206Y82058D01*
G01X43206Y81537D01*
G01X43691Y81712D02*
G01X42962Y81712D01*
G01X41151Y81641D02*
G01X41151Y81989D01*
G01X40839Y82022D01*
G01X40874Y81989D01*
G01X40907Y81885D01*
G01X40907Y81781D01*
G01X40874Y81677D01*
G01X40803Y81608D01*
G01X40699Y81572D01*
G01X40630Y81572D01*
G01X40526Y81608D01*
G01X40458Y81677D01*
G01X40422Y81781D01*
G01X40422Y81885D01*
G01X40458Y81989D01*
G01X40493Y82022D01*
G01X40562Y82058D01*
G01X38634Y81641D02*
G01X38702Y81677D01*
G01X38738Y81781D01*
G01X38738Y81849D01*
G01X38702Y81953D01*
G01X38598Y82022D01*
G01X38426Y82058D01*
G01X38253Y82058D01*
G01X38113Y82022D01*
G01X38045Y81953D01*
G01X38009Y81849D01*
G01X38009Y81816D01*
G01X38045Y81712D01*
G01X38113Y81641D01*
G01X38217Y81608D01*
G01X38253Y81608D01*
G01X38357Y81641D01*
G01X38426Y81712D01*
G01X38461Y81816D01*
G01X38461Y81849D01*
G01X38426Y81953D01*
G01X38357Y82022D01*
G01X38253Y82058D01*
G01X36071Y81572D02*
G01X35342Y81918D01*
G01X36071Y82058D02*
G01X36071Y81572D01*
G01X33658Y81885D02*
G01X33622Y81989D01*
G01X33554Y82022D01*
G01X33483Y82022D01*
G01X33414Y81989D01*
G01X33381Y81918D01*
G01X33346Y81781D01*
G01X33310Y81677D01*
G01X33241Y81608D01*
G01X33173Y81572D01*
G01X33069Y81572D01*
G01X33000Y81608D01*
G01X32965Y81641D01*
G01X32929Y81745D01*
G01X32929Y81885D01*
G01X32965Y81989D01*
G01X33000Y82022D01*
G01X33069Y82058D01*
G01X33173Y82058D01*
G01X33241Y82022D01*
G01X33310Y81953D01*
G01X33346Y81849D01*
G01X33381Y81712D01*
G01X33414Y81641D01*
G01X33483Y81608D01*
G01X33554Y81608D01*
G01X33622Y81641D01*
G01X33658Y81745D01*
G01X33658Y81885D01*
G01X30874Y81608D02*
G01X30770Y81641D01*
G01X30701Y81712D01*
G01X30666Y81816D01*
G01X30666Y81849D01*
G01X30701Y81953D01*
G01X30770Y82022D01*
G01X30874Y82058D01*
G01X30910Y82058D01*
G01X31014Y82022D01*
G01X31082Y81953D01*
G01X31118Y81849D01*
G01X31118Y81816D01*
G01X31082Y81712D01*
G01X31014Y81641D01*
G01X30874Y81608D01*
G01X30701Y81608D01*
G01X30529Y81641D01*
G01X30425Y81712D01*
G01X30389Y81816D01*
G01X30389Y81885D01*
G01X30425Y81989D01*
G01X30493Y82022D01*
G01X39211Y49810D02*
G01X39211Y48720D01*
G01X39211Y49810D02*
G01X39627Y48720D01*
G01X40041Y49810D02*
G01X39627Y48720D01*
G01X40041Y49810D02*
G01X40041Y48720D01*
G01X41113Y49655D02*
G01X41009Y49759D01*
G01X40851Y49810D01*
G01X40646Y49810D01*
G01X40488Y49759D01*
G01X40384Y49655D01*
G01X40384Y49551D01*
G01X40437Y49446D01*
G01X40488Y49393D01*
G01X40592Y49342D01*
G01X40905Y49238D01*
G01X41009Y49187D01*
G01X41060Y49134D01*
G01X41113Y49030D01*
G01X41113Y48875D01*
G01X41009Y48771D01*
G01X40851Y48720D01*
G01X40646Y48720D01*
G01X40488Y48771D01*
G01X40384Y48875D01*
G01X41456Y49601D02*
G01X41560Y49655D01*
G01X41715Y49810D01*
G01X41715Y48720D01*
G01X3650Y81814D02*
G01X3650Y80724D01*
G01X3650Y81814D02*
G01X4118Y81814D01*
G01X4273Y81763D01*
G01X4326Y81710D01*
G01X4377Y81605D01*
G01X4377Y81501D01*
G01X4326Y81397D01*
G01X4273Y81346D01*
G01X4118Y81296D01*
G01X3650Y81296D01*
G01X4014Y81296D02*
G01X4377Y80724D01*
G01X4720Y81814D02*
G01X4720Y80724D01*
G01X4720Y81814D02*
G01X5395Y81814D01*
G01X4720Y81296D02*
G01X5136Y81296D01*
G01X4720Y80724D02*
G01X5395Y80724D01*
G01X6467Y81659D02*
G01X6363Y81763D01*
G01X6206Y81814D01*
G01X6000Y81814D01*
G01X5843Y81763D01*
G01X5738Y81659D01*
G01X5738Y81555D01*
G01X5792Y81450D01*
G01X5843Y81397D01*
G01X5947Y81346D01*
G01X6259Y81242D01*
G01X6363Y81191D01*
G01X6414Y81138D01*
G01X6467Y81034D01*
G01X6467Y80879D01*
G01X6363Y80775D01*
G01X6206Y80724D01*
G01X6000Y80724D01*
G01X5843Y80775D01*
G01X5738Y80879D01*
G01X6810Y81814D02*
G01X6810Y80724D01*
G01X6810Y81814D02*
G01X7486Y81814D01*
G01X6810Y81296D02*
G01X7224Y81296D01*
G01X6810Y80724D02*
G01X7486Y80724D01*
G01X8192Y81814D02*
G01X8192Y80724D01*
G01X7829Y81814D02*
G01X8555Y81814D01*
G01X39211Y58700D02*
G01X39211Y57610D01*
G01X39211Y58700D02*
G01X39627Y57610D01*
G01X40041Y58700D02*
G01X39627Y57610D01*
G01X40041Y58700D02*
G01X40041Y57610D01*
G01X41113Y58545D02*
G01X41009Y58649D01*
G01X40851Y58700D01*
G01X40646Y58700D01*
G01X40488Y58649D01*
G01X40384Y58545D01*
G01X40384Y58441D01*
G01X40437Y58336D01*
G01X40488Y58283D01*
G01X40592Y58232D01*
G01X40905Y58128D01*
G01X41009Y58077D01*
G01X41060Y58024D01*
G01X41113Y57920D01*
G01X41113Y57765D01*
G01X41009Y57661D01*
G01X40851Y57610D01*
G01X40646Y57610D01*
G01X40488Y57661D01*
G01X40384Y57765D01*
G01X41507Y58441D02*
G01X41507Y58491D01*
G01X41560Y58596D01*
G01X41611Y58649D01*
G01X41715Y58700D01*
G01X41923Y58700D01*
G01X42027Y58649D01*
G01X42078Y58596D01*
G01X42132Y58491D01*
G01X42132Y58387D01*
G01X42078Y58283D01*
G01X41974Y58128D01*
G01X41456Y57610D01*
G01X42182Y57610D01*
G01X29305Y49556D02*
G01X29305Y48466D01*
G01X29305Y49556D02*
G01X29721Y48466D01*
G01X30135Y49556D02*
G01X29721Y48466D01*
G01X30135Y49556D02*
G01X30135Y48466D01*
G01X31207Y49401D02*
G01X31103Y49505D01*
G01X30945Y49556D01*
G01X30740Y49556D01*
G01X30582Y49505D01*
G01X30478Y49401D01*
G01X30478Y49297D01*
G01X30531Y49192D01*
G01X30582Y49139D01*
G01X30686Y49088D01*
G01X30999Y48984D01*
G01X31103Y48933D01*
G01X31154Y48880D01*
G01X31207Y48776D01*
G01X31207Y48621D01*
G01X31103Y48517D01*
G01X30945Y48466D01*
G01X30740Y48466D01*
G01X30582Y48517D01*
G01X30478Y48621D01*
G01X31654Y49556D02*
G01X32226Y49556D01*
G01X31913Y49139D01*
G01X32068Y49139D01*
G01X32172Y49088D01*
G01X32226Y49037D01*
G01X32276Y48880D01*
G01X32276Y48776D01*
G01X32226Y48621D01*
G01X32121Y48517D01*
G01X31964Y48466D01*
G01X31809Y48466D01*
G01X31654Y48517D01*
G01X31601Y48568D01*
G01X31550Y48672D01*
G01X29178Y58700D02*
G01X29177Y57610D01*
G01X29178Y58700D02*
G01X29594Y57610D01*
G01X30008Y58700D02*
G01X29594Y57610D01*
G01X30008Y58700D02*
G01X30008Y57610D01*
G01X31080Y58545D02*
G01X30976Y58649D01*
G01X30818Y58700D01*
G01X30613Y58700D01*
G01X30455Y58649D01*
G01X30351Y58545D01*
G01X30351Y58441D01*
G01X30404Y58337D01*
G01X30455Y58283D01*
G01X30559Y58232D01*
G01X30872Y58128D01*
G01X30976Y58077D01*
G01X31027Y58024D01*
G01X31080Y57920D01*
G01X31080Y57765D01*
G01X30976Y57661D01*
G01X30818Y57610D01*
G01X30613Y57610D01*
G01X30455Y57661D01*
G01X30351Y57765D01*
G01X31941Y58700D02*
G01X31423Y57973D01*
G01X32200Y57973D01*
G01X31941Y58700D02*
G01X31941Y57610D01*
G01X11006Y75004D02*
G01X11057Y74900D01*
G01X11161Y74796D01*
G01X11265Y74742D01*
G01X11423Y74692D01*
G01X11682Y74692D01*
G01X11837Y74742D01*
G01X11941Y74796D01*
G01X12045Y74900D01*
G01X12096Y75004D01*
G01X12096Y75212D01*
G01X12045Y75314D01*
G01X11941Y75418D01*
G01X11837Y75471D01*
G01X11682Y75522D01*
G01X11423Y75522D01*
G01X11265Y75471D01*
G01X11161Y75418D01*
G01X11057Y75314D01*
G01X11006Y75212D01*
G01X11006Y75004D01*
G01X11006Y75865D02*
G01X12096Y75865D01*
G01X12096Y75865D02*
G01X12096Y76490D01*
G01X11006Y76833D02*
G01X12096Y76833D01*
G01X11006Y76833D02*
G01X11006Y77508D01*
G01X11524Y76833D02*
G01X11524Y77247D01*
G01X12096Y76833D02*
G01X12096Y77508D01*
G01X11006Y77851D02*
G01X12096Y77851D01*
G01X11006Y77851D02*
G01X11006Y78214D01*
G01X11057Y78369D01*
G01X11161Y78474D01*
G01X11265Y78527D01*
G01X11423Y78578D01*
G01X11682Y78578D01*
G01X11837Y78527D01*
G01X11941Y78474D01*
G01X12045Y78369D01*
G01X12096Y78214D01*
G01X12096Y77851D01*
G01X15680Y52703D02*
G01X15576Y52807D01*
G01X15421Y52858D01*
G01X15212Y52858D01*
G01X15058Y52807D01*
G01X14953Y52703D01*
G01X14953Y52599D01*
G01X15004Y52495D01*
G01X15058Y52441D01*
G01X15162Y52390D01*
G01X15474Y52286D01*
G01X15576Y52235D01*
G01X15629Y52182D01*
G01X15680Y52078D01*
G01X15680Y51923D01*
G01X15576Y51819D01*
G01X15421Y51768D01*
G01X15212Y51768D01*
G01X15058Y51819D01*
G01X14953Y51923D01*
G01X16023Y52858D02*
G01X16284Y51768D01*
G01X16543Y52858D02*
G01X16284Y51768D01*
G01X16543Y52858D02*
G01X16802Y51768D01*
G01X17062Y52858D02*
G01X16802Y51768D01*
G01X18133Y52858D02*
G01X17613Y51768D01*
G01X17404Y52858D02*
G01X18133Y52858D01*
G01X53780Y52449D02*
G01X53676Y52553D01*
G01X53521Y52604D01*
G01X53312Y52604D01*
G01X53158Y52553D01*
G01X53053Y52449D01*
G01X53053Y52345D01*
G01X53104Y52241D01*
G01X53158Y52187D01*
G01X53262Y52136D01*
G01X53574Y52032D01*
G01X53676Y51981D01*
G01X53729Y51928D01*
G01X53780Y51824D01*
G01X53780Y51669D01*
G01X53676Y51565D01*
G01X53521Y51514D01*
G01X53312Y51514D01*
G01X53158Y51565D01*
G01X53053Y51669D01*
G01X54123Y52604D02*
G01X54384Y51514D01*
G01X54643Y52604D02*
G01X54384Y51514D01*
G01X54643Y52604D02*
G01X54902Y51514D01*
G01X55162Y52604D02*
G01X54902Y51514D01*
G01X55766Y52604D02*
G01X55609Y52553D01*
G01X55558Y52449D01*
G01X55558Y52345D01*
G01X55609Y52241D01*
G01X55713Y52187D01*
G01X55921Y52136D01*
G01X56076Y52086D01*
G01X56180Y51981D01*
G01X56233Y51877D01*
G01X56233Y51720D01*
G01X56180Y51616D01*
G01X56129Y51565D01*
G01X55974Y51514D01*
G01X55766Y51514D01*
G01X55609Y51565D01*
G01X55558Y51616D01*
G01X55504Y51720D01*
G01X55504Y51877D01*
G01X55558Y51981D01*
G01X55662Y52086D01*
G01X55817Y52136D01*
G01X56025Y52187D01*
G01X56129Y52241D01*
G01X56180Y52345D01*
G01X56180Y52449D01*
G01X56129Y52553D01*
G01X55974Y52604D01*
G01X55766Y52604D01*
G01X49970Y15746D02*
G01X49866Y15850D01*
G01X49711Y15901D01*
G01X49503Y15901D01*
G01X49348Y15850D01*
G01X49243Y15746D01*
G01X49243Y15642D01*
G01X49294Y15537D01*
G01X49348Y15484D01*
G01X49452Y15433D01*
G01X49764Y15329D01*
G01X49866Y15278D01*
G01X49919Y15225D01*
G01X49970Y15121D01*
G01X49970Y14966D01*
G01X49866Y14862D01*
G01X49711Y14811D01*
G01X49503Y14811D01*
G01X49348Y14862D01*
G01X49243Y14966D01*
G01X50313Y15901D02*
G01X50574Y14811D01*
G01X50834Y15901D02*
G01X50574Y14811D01*
G01X50834Y15901D02*
G01X51093Y14811D01*
G01X51352Y15901D02*
G01X51093Y14811D01*
G01X51695Y15692D02*
G01X51799Y15746D01*
G01X51956Y15901D01*
G01X51956Y14811D01*
G01X30793Y15873D02*
G01X30689Y15977D01*
G01X30534Y16028D01*
G01X30326Y16028D01*
G01X30171Y15977D01*
G01X30066Y15873D01*
G01X30066Y15769D01*
G01X30117Y15664D01*
G01X30171Y15611D01*
G01X30275Y15560D01*
G01X30587Y15456D01*
G01X30689Y15405D01*
G01X30742Y15352D01*
G01X30793Y15248D01*
G01X30793Y15093D01*
G01X30689Y14989D01*
G01X30534Y14938D01*
G01X30326Y14938D01*
G01X30171Y14989D01*
G01X30066Y15093D01*
G01X31136Y16028D02*
G01X31397Y14938D01*
G01X31657Y16028D02*
G01X31397Y14938D01*
G01X31657Y16028D02*
G01X31916Y14938D01*
G01X32175Y16028D02*
G01X31916Y14938D01*
G01X32571Y15769D02*
G01X32571Y15819D01*
G01X32622Y15924D01*
G01X32675Y15977D01*
G01X32779Y16028D01*
G01X32987Y16028D01*
G01X33089Y15977D01*
G01X33142Y15924D01*
G01X33193Y15819D01*
G01X33193Y15715D01*
G01X33142Y15611D01*
G01X33038Y15456D01*
G01X32518Y14938D01*
G01X33247Y14938D01*
G01X11870Y15873D02*
G01X11766Y15977D01*
G01X11611Y16028D01*
G01X11403Y16028D01*
G01X11248Y15977D01*
G01X11143Y15873D01*
G01X11143Y15769D01*
G01X11194Y15664D01*
G01X11248Y15611D01*
G01X11352Y15560D01*
G01X11664Y15456D01*
G01X11766Y15405D01*
G01X11819Y15352D01*
G01X11870Y15248D01*
G01X11870Y15093D01*
G01X11766Y14989D01*
G01X11611Y14938D01*
G01X11403Y14938D01*
G01X11248Y14989D01*
G01X11143Y15093D01*
G01X12213Y16028D02*
G01X12474Y14938D01*
G01X12734Y16028D02*
G01X12474Y14938D01*
G01X12734Y16028D02*
G01X12993Y14938D01*
G01X13252Y16028D02*
G01X12993Y14938D01*
G01X13699Y16028D02*
G01X14270Y16028D01*
G01X13960Y15611D01*
G01X14115Y15611D01*
G01X14219Y15560D01*
G01X14270Y15510D01*
G01X14324Y15352D01*
G01X14324Y15248D01*
G01X14270Y15093D01*
G01X14166Y14989D01*
G01X14011Y14938D01*
G01X13856Y14938D01*
G01X13699Y14989D01*
G01X13648Y15040D01*
G01X13595Y15144D01*
G01X11997Y34923D02*
G01X11893Y35027D01*
G01X11738Y35078D01*
G01X11530Y35078D01*
G01X11375Y35027D01*
G01X11270Y34923D01*
G01X11270Y34819D01*
G01X11321Y34714D01*
G01X11375Y34661D01*
G01X11479Y34610D01*
G01X11791Y34506D01*
G01X11893Y34455D01*
G01X11946Y34402D01*
G01X11997Y34298D01*
G01X11997Y34143D01*
G01X11893Y34039D01*
G01X11738Y33988D01*
G01X11530Y33988D01*
G01X11375Y34039D01*
G01X11270Y34143D01*
G01X12340Y35078D02*
G01X12601Y33988D01*
G01X12861Y35078D02*
G01X12601Y33988D01*
G01X12861Y35078D02*
G01X13120Y33988D01*
G01X13379Y35078D02*
G01X13120Y33988D01*
G01X14242Y35078D02*
G01X13722Y34351D01*
G01X14501Y34351D01*
G01X14242Y35078D02*
G01X14242Y33988D01*
G01X30920Y34796D02*
G01X30816Y34900D01*
G01X30661Y34951D01*
G01X30453Y34951D01*
G01X30298Y34900D01*
G01X30193Y34796D01*
G01X30193Y34692D01*
G01X30244Y34587D01*
G01X30298Y34534D01*
G01X30402Y34483D01*
G01X30714Y34379D01*
G01X30816Y34328D01*
G01X30869Y34275D01*
G01X30920Y34171D01*
G01X30920Y34016D01*
G01X30816Y33912D01*
G01X30661Y33861D01*
G01X30453Y33861D01*
G01X30298Y33912D01*
G01X30193Y34016D01*
G01X31263Y34951D02*
G01X31524Y33861D01*
G01X31784Y34951D02*
G01X31524Y33861D01*
G01X31784Y34951D02*
G01X32043Y33861D01*
G01X32302Y34951D02*
G01X32043Y33861D01*
G01X33269Y34951D02*
G01X32749Y34951D01*
G01X32698Y34483D01*
G01X32749Y34534D01*
G01X32906Y34587D01*
G01X33061Y34587D01*
G01X33216Y34534D01*
G01X33320Y34433D01*
G01X33374Y34275D01*
G01X33374Y34171D01*
G01X33320Y34016D01*
G01X33216Y33912D01*
G01X33061Y33861D01*
G01X32906Y33861D01*
G01X32749Y33912D01*
G01X32698Y33963D01*
G01X32645Y34067D01*
G01X49843Y34669D02*
G01X49739Y34773D01*
G01X49584Y34824D01*
G01X49376Y34824D01*
G01X49221Y34773D01*
G01X49116Y34669D01*
G01X49116Y34565D01*
G01X49167Y34460D01*
G01X49221Y34407D01*
G01X49325Y34356D01*
G01X49637Y34252D01*
G01X49739Y34201D01*
G01X49792Y34148D01*
G01X49843Y34044D01*
G01X49843Y33889D01*
G01X49739Y33785D01*
G01X49584Y33734D01*
G01X49376Y33734D01*
G01X49221Y33785D01*
G01X49116Y33889D01*
G01X50186Y34824D02*
G01X50447Y33734D01*
G01X50707Y34824D02*
G01X50447Y33734D01*
G01X50707Y34824D02*
G01X50966Y33734D01*
G01X51225Y34824D02*
G01X50966Y33734D01*
G01X52192Y34669D02*
G01X52139Y34773D01*
G01X51984Y34824D01*
G01X51880Y34824D01*
G01X51725Y34773D01*
G01X51621Y34615D01*
G01X51568Y34356D01*
G01X51568Y34097D01*
G01X51621Y33889D01*
G01X51725Y33785D01*
G01X51880Y33734D01*
G01X51933Y33734D01*
G01X52088Y33785D01*
G01X52192Y33889D01*
G01X52243Y34044D01*
G01X52243Y34097D01*
G01X52192Y34252D01*
G01X52088Y34356D01*
G01X51933Y34407D01*
G01X51880Y34407D01*
G01X51725Y34356D01*
G01X51621Y34252D01*
G01X51568Y34097D01*
G01X2507Y46762D02*
G01X2507Y45672D01*
G01X3234Y46762D02*
G01X3234Y45672D01*
G01X2507Y46244D02*
G01X3234Y46244D01*
G01X3577Y46553D02*
G01X3681Y46607D01*
G01X3838Y46762D01*
G01X3838Y45672D01*
G01X61308Y46762D02*
G01X61308Y45672D01*
G01X62035Y46762D02*
G01X62035Y45672D01*
G01X61308Y46244D02*
G01X62035Y46244D01*
G01X62431Y46503D02*
G01X62431Y46553D01*
G01X62482Y46658D01*
G01X62535Y46711D01*
G01X62639Y46762D01*
G01X62845Y46762D01*
G01X62949Y46711D01*
G01X63003Y46658D01*
G01X63053Y46553D01*
G01X63053Y46449D01*
G01X63003Y46345D01*
G01X62899Y46190D01*
G01X62378Y45672D01*
G01X63107Y45672D01*
G01X22319Y23648D02*
G01X22319Y22558D01*
G01X23046Y23648D02*
G01X23046Y22558D01*
G01X22319Y23130D02*
G01X23046Y23130D01*
G01X23493Y23648D02*
G01X24064Y23648D01*
G01X23755Y23231D01*
G01X23910Y23231D01*
G01X24014Y23180D01*
G01X24064Y23130D01*
G01X24118Y22972D01*
G01X24118Y22868D01*
G01X24064Y22713D01*
G01X23960Y22609D01*
G01X23805Y22558D01*
G01X23650Y22558D01*
G01X23493Y22609D01*
G01X23442Y22660D01*
G01X23389Y22764D01*
G01X41369Y23775D02*
G01X41369Y22685D01*
G01X42096Y23775D02*
G01X42096Y22685D01*
G01X41369Y23257D02*
G01X42096Y23257D01*
G01X42960Y23775D02*
G01X42439Y23048D01*
G01X43219Y23048D01*
G01X42960Y23775D02*
G01X42960Y22685D01*
G01X2634Y87148D02*
G01X2634Y86058D01*
G01X3361Y87148D02*
G01X3361Y86058D01*
G01X2634Y86630D02*
G01X3361Y86630D01*
G01X4329Y87148D02*
G01X3808Y87148D01*
G01X3757Y86680D01*
G01X3808Y86731D01*
G01X3965Y86784D01*
G01X4120Y86784D01*
G01X4275Y86731D01*
G01X4379Y86630D01*
G01X4433Y86472D01*
G01X4433Y86368D01*
G01X4379Y86213D01*
G01X4275Y86109D01*
G01X4120Y86058D01*
G01X3965Y86058D01*
G01X3808Y86109D01*
G01X3757Y86160D01*
G01X3704Y86264D01*
G54D10*
G75*
G01X14573Y58051D02*
G02X11017Y58051I-1778J-994D01*
G01*
G75*
G01X52673Y58051D02*
G02X49117Y58051I-1778J-994D01*
G01*
G75*
G01X37971Y52644D02*
G03X37971Y52644I-1651J0D01*
G01*
G75*
G01X7588Y76597D02*
G03X7588Y76597I-1651J0D01*
G01*
G75*
G01X37889Y61407D02*
G03X37889Y61407I-1651J0D01*
G01*
G75*
G01X29081Y52644D02*
G03X29081Y52644I-1651J0D01*
G01*
G75*
G01X29038Y61407D02*
G03X29038Y61407I-1651J0D01*
G01*
G75*
G01X17120Y57035D02*
G03X17120Y57035I-4325J0D01*
G01*
G75*
G01X16148Y57035D02*
G03X16148Y57035I-3353J0D01*
G01*
G75*
G01X15843Y57035D02*
G03X15843Y57035I-3048J0D01*
G01*
G75*
G01X55220Y57035D02*
G03X55220Y57035I-4325J0D01*
G01*
G75*
G01X54248Y57035D02*
G03X54248Y57035I-3353J0D01*
G01*
G75*
G01X53943Y57035D02*
G03X53943Y57035I-3048J0D01*
G01*
M00*
M02*
