;Layer: Drill PTH
;EasyEDA v6.4.7, 2020-12-12T13:13:04+01:00
;d11925a588f84334974d7b2f1f55f34c,4d97e48eab474e129cc19cc013e78dee,10
;Gerber Generator version 0.2
M48
METRIC,LZ,000.000
;Holesize 1 = 0.306 METRIC
T01C0.306
;Holesize 2 = 0.900 METRIC
T02C0.900
;Holesize 3 = 0.915 METRIC
T03C0.915
;Holesize 4 = 1.000 METRIC
T04C1.000
;Holesize 5 = 1.200 METRIC
T05C1.200
;Holesize 6 = 1.301 METRIC
T06C1.301
;Holesize 7 = 1.501 METRIC
T07C1.501
%
G05
G90
T01
X+052672Y+070755
X+047084Y+070755
X+045052Y+065675
X+056609Y+065675
T02
X+020795Y+080534
X+020795Y+072914
X+023716Y+080534
X+023716Y+072914
X+030701Y+069104
X+033241Y+069104
X+035781Y+069104
X+038321Y+069104
X+040861Y+069104
X+043401Y+069104
X+045941Y+069104
X+048481Y+069104
X+051021Y+069104
X+053561Y+069104
X+056101Y+069104
X+058641Y+069104
X+058641Y+084344
X+056101Y+084344
X+053561Y+084344
X+051021Y+084344
X+048481Y+084344
X+045941Y+084344
X+043401Y+084344
X+040861Y+084344
X+038321Y+084344
X+035781Y+084344
X+033241Y+084344
X+030701Y+084344
T03
X+055894Y+016596
X+036844Y+016596
X+017794Y+016596
X+017794Y+035646
X+036844Y+035646
X+055894Y+035646
T04
X+032254Y+053550
X+034401Y+048946
X+038239Y+056341
X+040386Y+051737
X+002634Y+079137
X+002634Y+074057
X+009238Y+079137
X+009238Y+074057
X+032171Y+062313
X+034318Y+057709
X+038156Y+065104
X+040303Y+060500
X+023364Y+053550
X+025511Y+048946
X+029349Y+056341
X+031496Y+051737
X+023320Y+062313
X+025467Y+057709
X+029305Y+065104
X+031452Y+060500
T05
X+013813Y+072941
X+013813Y+075481
X+013810Y+077994
X+013810Y+080534
X+050894Y+005545
X+045895Y+007545
X+031844Y+005545
X+026845Y+007545
X+012794Y+005545
X+007795Y+007545
X+012794Y+024595
X+007795Y+026595
X+031844Y+024595
X+026845Y+026595
X+050894Y+024595
X+045895Y+026595
T06
X+010254Y+049534
X+012794Y+049534
X+015334Y+049534
X+010254Y+064035
X+015334Y+064035
X+048354Y+049534
X+050894Y+049534
X+053434Y+049534
X+048354Y+064035
X+053434Y+064035
T07
X+018294Y+056285G85X+018294Y+057785
X+007294Y+056285G85X+007294Y+057785
X+056394Y+056285G85X+056394Y+057785
X+045394Y+056285G85X+045394Y+057785
X+054704Y+008906
X+048354Y+006366
X+035654Y+008906
X+029304Y+006366
X+016604Y+008906
X+010254Y+006366
X+016604Y+027956
X+010254Y+025416
X+035654Y+027956
X+029304Y+025416
X+054704Y+027956
X+048354Y+025416
M30
