;Layer: Drill NPTH
;EasyEDA v6.4.7, 2020-12-12T13:13:04+01:00
;d11925a588f84334974d7b2f1f55f34c,4d97e48eab474e129cc19cc013e78dee,10
;Gerber Generator version 0.2
M48
METRIC,LZ,000.000
;Holesize 1 = 1.700 METRIC
T01C1.700
;Holesize 2 = 2.000 METRIC
T02C2.000
%
G05
G90
T01
X+055974Y+011446
X+045814Y+011446
X+056494Y+011446
X+045295Y+011446
X+056194Y+011446
X+045595Y+011446
X+036924Y+011446
X+026764Y+011446
X+037444Y+011446
X+026245Y+011446
X+037144Y+011446
X+026545Y+011446
X+017874Y+011446
X+007714Y+011446
X+018394Y+011446
X+007195Y+011446
X+018094Y+011446
X+007495Y+011446
X+017874Y+030496
X+007714Y+030496
X+018394Y+030496
X+007195Y+030496
X+018094Y+030496
X+007495Y+030496
X+036924Y+030496
X+026764Y+030496
X+037444Y+030496
X+026245Y+030496
X+037144Y+030496
X+026545Y+030496
X+055974Y+030496
X+045814Y+030496
X+056494Y+030496
X+045295Y+030496
X+056194Y+030496
X+045595Y+030496
T02
X+002634Y+069104
X+061308Y+001921
X+002507Y+001794
X+002507Y+044085
X+061308Y+044085
X+022319Y+020971
X+041369Y+021098
X+002634Y+084471
M30
